<svg xmlns="http://www.w3.org/2000/svg" pointer-events="none" class="leaflet-zoom-animated" width="954" height="631" viewBox="-90 36 954 631" style="transform: translate3d(-90px, 36px, 0px);"><g><path class="leaflet-interactive" stroke="black" stroke-opacity="1" stroke-width="2" stroke-linecap="round" stroke-linejoin="round" fill="#fff" fill-opacity="0.2" fill-rule="evenodd" d="M575 359L578 355L577 352L586 346L586 343L587 344L590 341L590 338L592 337L590 337L592 335L593 337L596 335L601 337L603 332L609 327L612 327L613 318L609 315L606 315L607 314L604 310L605 306L603 304L602 298L603 295L607 292L605 290L602 293L602 289L605 284L604 283L606 277L608 275L606 275L605 273L603 275L600 272L601 267L599 263L601 259L595 260L592 268L593 269L588 276L588 281L584 279L583 283L578 281L578 279L572 280L570 277L568 281L565 274L568 272L567 271L569 267L567 267L569 264L566 262L567 261L564 258L564 260L560 261L563 264L563 266L561 267L562 270L558 271L555 268L558 265L555 256L558 255L557 252L559 249L555 247L549 249L540 244L543 236L541 235L541 227L538 222L537 215L534 219L531 216L528 218L523 215L520 219L515 219L511 221L510 224L508 224L505 215L506 211L503 209L503 207L499 211L497 211L494 209L493 210L490 205L485 209L482 206L480 208L481 214L478 216L479 219L477 221L480 222L482 226L479 233L475 233L475 236L468 238L469 234L467 233L466 230L459 231L458 229L457 232L457 230L455 230L455 232L453 232L453 238L451 239L449 235L448 237L447 236L446 238L443 239L446 245L445 249L443 249L442 252L440 249L439 250L438 252L440 253L437 254L436 256L438 261L436 262L434 261L434 259L431 260L428 257L428 259L426 259L426 257L429 255L429 251L431 249L430 248L432 247L429 246L430 244L429 245L426 242L425 238L423 238L420 234L419 239L424 245L421 251L423 253L420 251L422 255L421 256L415 253L414 260L410 259L409 256L403 253L400 248L396 248L394 244L392 244L392 242L388 240L387 243L385 243L386 245L383 246L384 250L376 250L374 252L373 250L372 252L370 251L369 256L365 257L365 263L367 263L366 271L372 275L374 272L376 272L376 270L383 278L381 280L381 284L383 286L386 284L388 287L392 287L391 285L396 283L401 284L407 290L405 293L411 297L409 302L411 302L412 305L410 306L412 308L402 313L399 311L394 311L385 315L385 313L381 314L380 316L372 316L372 318L368 318L367 320L359 312L351 312L347 314L345 317L345 323L340 328L342 328L342 330L340 332L341 333L338 340L337 341L337 339L334 337L328 339L327 338L318 346L316 345L315 342L311 344L309 342L300 345L296 343L293 338L284 333L282 335L282 338L277 343L278 345L272 348L269 345L269 343L266 343L262 340L262 336L257 336L252 347L248 348L243 356L237 359L239 363L236 363L236 367L242 364L247 372L247 376L242 380L242 382L243 386L246 386L245 394L249 401L266 402L265 399L269 393L276 395L284 395L287 388L291 393L290 395L292 398L298 398L298 402L301 403L302 407L304 408L305 412L303 416L299 416L296 421L294 433L290 434L291 439L288 445L289 452L284 459L284 457L282 456L281 466L289 470L288 475L290 477L290 475L297 473L296 481L303 486L302 490L306 489L308 492L314 492L314 498L313 499L309 495L304 506L301 506L305 507L307 511L299 519L295 529L300 532L301 535L306 535L306 537L308 538L310 535L315 534L319 528L326 526L330 516L338 511L342 514L342 516L353 515L357 524L359 525L363 524L367 527L369 526L377 532L381 530L386 530L386 532L391 536L395 531L399 529L399 527L401 528L403 520L399 514L400 513L401 514L404 512L410 512L423 507L424 505L427 505L433 498L447 498L448 493L454 494L453 492L455 491L455 486L453 485L452 480L455 476L459 474L458 472L460 470L464 470L468 467L469 471L475 476L474 482L479 481L482 490L484 489L486 491L484 494L485 496L492 492L493 493L492 492L494 491L495 488L497 489L496 490L499 497L502 493L503 494L505 500L503 502L508 502L515 498L526 496L528 491L528 483L531 482L529 480L531 478L535 480L534 479L538 475L538 473L541 472L546 479L550 478L551 481L555 483L558 489L559 484L556 481L558 476L559 478L557 476L561 473L563 474L563 472L561 471L563 466L567 465L571 473L572 471L580 471L583 474L586 473L588 471L586 470L585 465L588 459L583 458L579 462L576 462L576 460L584 454L588 455L590 453L592 454L592 458L595 456L593 454L594 453L596 457L601 460L605 458L605 451L611 444L610 442L614 437L612 435L612 432L616 431L615 428L613 428L611 422L613 418L612 417L606 420L600 417L603 409L607 406L607 402L609 401L606 392L604 393L601 390L608 388L607 387L609 388L611 385L614 385L611 376L612 374L616 372L617 373L618 366L616 362L612 362L614 362L612 360L613 359L611 359L609 356L602 358L600 358L599 356L593 363L589 362L591 359L590 358L580 363L578 367L578 365L575 367L569 361L576 359zM331 517L332 516zM613 380L615 386L616 377L613 375L612 376L614 379zM620 385L617 386L620 387L620 385z" id="贵州省"/><path class="leaflet-interactive" stroke="#333" stroke-opacity="1" stroke-width="1" stroke-linecap="round" stroke-linejoin="round" stroke-dasharray="1,6" fill="#eee" fill-opacity="0.5" fill-rule="evenodd" d="M467 342L460 344L455 342L447 348L444 344L442 344L438 352L437 347L435 345L430 345L430 347L420 353L415 358L418 367L414 369L413 375L409 375L407 378L405 377L405 375L398 379L399 383L401 384L401 390L398 391L398 393L402 397L401 398L405 401L407 399L409 400L411 402L410 404L412 404L411 407L415 408L418 406L422 412L426 412L426 415L421 420L423 422L422 423L428 423L433 418L439 421L440 420L443 426L445 426L447 423L445 422L446 418L440 417L443 414L443 412L438 411L443 407L443 399L449 396L446 394L447 393L452 393L451 390L453 385L462 380L470 382L472 377L469 368L465 364L466 357L471 354L469 350L463 349L467 343z" id="贵阳市"/><path class="leaflet-interactive" stroke="#333" stroke-opacity="1" stroke-width="1" stroke-linecap="round" stroke-linejoin="round" stroke-dasharray="1,6" fill="#eee" fill-opacity="0.5" fill-rule="evenodd" d="M310 384L309 393L305 396L306 399L303 402L298 400L298 402L301 403L302 407L304 408L305 412L303 416L299 416L296 421L294 430L295 431L293 434L290 434L291 439L288 445L289 452L284 459L284 457L282 456L281 462L281 466L289 470L288 475L290 477L290 475L297 473L296 481L301 485L304 484L305 487L311 487L316 484L317 486L318 485L316 483L316 479L320 472L316 467L319 464L317 453L322 447L321 442L323 436L326 433L325 431L329 427L337 427L337 434L341 440L343 438L354 438L361 434L363 435L365 430L364 428L368 430L370 427L372 427L368 424L359 423L356 421L357 415L360 413L358 409L347 404L348 403L346 401L339 401L338 397L335 398L331 393L331 384L329 384L330 383L325 380L325 378L327 377L326 373L323 374L321 379L319 380L315 376L310 383zM306 382L306 379L302 377L299 386L303 387L305 383z" id="六盘水市"/><path class="leaflet-interactive" stroke="#333" stroke-opacity="1" stroke-width="1" stroke-linecap="round" stroke-linejoin="round" stroke-dasharray="1,6" fill="#eee" fill-opacity="0.5" fill-rule="evenodd" d="M523 215L520 219L515 219L511 221L510 224L508 224L505 215L506 211L503 209L503 207L499 211L497 211L494 209L493 210L490 205L485 209L482 206L480 208L481 214L478 216L479 219L477 221L480 222L482 226L479 233L475 233L475 236L468 238L469 234L467 233L466 230L459 231L458 229L457 232L457 230L455 230L455 232L453 232L453 238L451 239L449 235L448 237L447 236L446 238L443 239L446 245L445 249L443 249L442 252L440 249L439 250L438 252L440 253L437 254L436 256L438 261L436 262L434 261L434 259L431 260L428 257L428 259L426 259L426 257L429 255L429 251L431 249L430 248L432 247L429 246L430 244L429 245L426 242L425 238L423 238L420 234L419 239L424 245L421 251L423 253L420 251L422 255L421 256L415 253L414 260L410 259L409 256L403 253L400 248L396 248L394 244L392 244L392 242L388 240L387 243L385 243L386 245L383 246L384 250L376 250L374 252L373 250L372 252L370 251L369 256L365 257L365 263L367 263L366 271L372 275L374 272L376 272L376 270L383 278L381 280L381 284L383 286L386 284L388 287L392 287L391 285L396 283L401 284L407 290L405 293L411 297L409 302L411 302L412 305L410 306L412 308L402 313L399 311L394 311L391 313L390 318L397 320L396 322L401 327L405 327L405 325L408 323L410 324L411 333L418 330L423 333L424 330L425 331L429 329L436 337L436 340L434 341L438 352L442 344L444 344L446 348L448 348L454 342L460 344L467 342L472 333L480 337L478 341L480 341L481 343L482 340L486 340L484 349L487 353L487 350L489 352L489 349L495 348L497 350L504 352L503 353L505 354L508 353L507 355L509 355L510 357L511 354L512 355L521 350L518 345L515 344L515 342L513 343L513 345L512 342L507 344L504 342L503 339L506 339L503 334L504 332L506 332L508 327L512 327L512 322L515 317L515 312L511 306L514 295L510 290L510 292L508 292L504 289L506 282L510 279L509 270L514 267L518 268L516 265L517 262L519 262L517 263L520 265L520 268L522 266L523 264L521 259L523 257L521 252L522 250L527 248L526 247L530 244L532 238L532 235L531 236L527 232L527 227L523 221L523 216zM514 356L516 356L514 356z" id="遵义市"/><path class="leaflet-interactive" stroke="#333" stroke-opacity="1" stroke-width="1" stroke-linecap="round" stroke-linejoin="round" stroke-dasharray="1,6" fill="#eee" fill-opacity="0.5" fill-rule="evenodd" d="M342 440L342 443L346 447L350 448L350 452L357 457L358 460L362 460L370 464L372 470L374 470L376 477L383 481L386 479L384 475L389 471L388 468L389 467L389 469L392 471L395 468L396 472L394 473L398 476L398 478L402 477L404 483L406 482L411 485L417 485L417 483L415 482L417 480L415 477L421 465L418 462L416 464L409 462L410 459L406 461L405 460L405 451L408 448L409 445L407 444L410 441L406 437L403 438L405 436L405 433L408 432L406 429L408 425L407 423L405 423L409 421L410 423L412 423L413 419L421 420L426 415L426 413L421 411L418 407L411 407L411 402L407 399L403 401L401 398L402 397L399 394L400 397L398 404L394 406L388 408L388 403L385 402L380 405L376 405L375 407L372 406L364 409L363 412L357 415L356 421L358 423L359 422L368 424L372 427L368 429L365 428L363 435L362 434L354 438L343 438L341 440zM404 437L405 437z" id="安顺市"/><path class="leaflet-interactive" stroke="#333" stroke-opacity="1" stroke-width="1" stroke-linecap="round" stroke-linejoin="round" stroke-dasharray="1,6" fill="#eee" fill-opacity="0.5" fill-rule="evenodd" d="M360 413L369 407L374 407L375 405L379 405L384 402L388 403L388 408L398 403L400 397L398 391L401 390L401 385L398 379L404 375L407 378L409 375L411 376L415 368L418 367L415 361L415 358L418 356L418 354L430 347L430 345L436 345L434 342L436 338L431 330L424 330L423 333L419 332L418 330L411 333L410 324L407 323L408 324L405 325L405 327L401 327L396 322L397 320L390 319L390 313L385 315L385 313L381 314L380 316L372 316L372 318L368 318L367 320L359 312L354 311L346 315L345 323L340 328L342 328L342 330L340 332L340 337L337 341L336 338L331 337L328 339L327 338L318 346L316 345L315 342L311 344L309 342L300 345L296 343L294 339L290 336L284 333L282 335L282 338L277 343L278 345L272 348L278 349L281 352L281 359L283 361L282 362L284 363L284 368L286 366L292 368L292 370L294 371L298 370L303 374L302 377L306 379L306 382L310 384L315 376L319 380L325 373L327 376L325 380L330 382L329 383L331 384L331 393L334 396L334 398L338 397L341 402L346 401L348 405L358 408L359 412zM302 377L303 375L301 372L300 373L299 370L294 371L292 368L286 366L284 368L283 367L284 363L281 359L281 352L278 349L272 348L269 345L269 343L263 341L262 336L257 336L252 347L248 348L243 356L237 359L239 363L236 363L236 367L242 364L247 372L247 376L242 380L242 382L243 386L246 386L245 394L249 401L252 402L266 402L265 399L269 393L276 395L284 395L287 388L291 393L290 395L292 398L296 397L298 398L298 400L303 402L306 399L305 396L309 393L310 384L306 382L304 386L301 387L299 386L301 380z" id="毕节市"/><path class="leaflet-interactive" stroke="#333" stroke-opacity="1" stroke-width="1" stroke-linecap="round" stroke-linejoin="round" stroke-dasharray="1,6" fill="#eee" fill-opacity="0.5" fill-rule="evenodd" d="M575 359L578 355L577 352L586 346L586 343L587 344L590 341L590 338L592 337L590 337L592 335L593 337L596 335L601 337L603 332L609 327L612 327L613 318L609 315L606 315L607 314L604 310L605 306L603 304L602 298L603 295L607 292L605 290L602 293L602 289L605 284L604 283L606 277L608 275L606 275L605 273L603 275L600 272L601 267L599 263L601 259L595 260L592 268L593 269L588 276L588 281L584 279L583 283L578 281L578 279L572 280L570 277L568 281L565 274L568 272L567 271L569 267L567 267L569 264L566 262L567 261L564 258L564 260L560 261L563 264L563 266L561 267L562 270L558 271L555 268L558 265L555 256L558 255L557 252L559 249L555 247L549 249L540 244L543 236L541 235L541 227L538 222L538 216L537 215L534 219L531 216L528 218L523 215L523 220L527 226L527 231L531 236L532 235L532 238L530 240L529 245L526 247L527 248L521 251L521 254L523 256L521 259L523 264L521 268L519 267L520 265L518 263L517 264L519 263L518 262L516 263L518 267L510 268L510 279L507 282L506 281L504 289L509 292L510 290L514 294L511 306L515 311L515 317L513 319L512 326L508 327L506 332L503 333L506 339L503 339L504 342L506 342L507 344L516 342L516 345L524 343L529 347L532 341L538 342L546 337L549 338L558 330L563 330L567 333L572 333L571 331L577 332L578 330L581 332L580 335L582 334L585 337L583 341L580 340L576 342L575 341L573 343L574 347L570 352L575 358zM513 343L512 344L514 344z" id="铜仁市"/><path class="leaflet-interactive" stroke="#333" stroke-opacity="1" stroke-width="1" stroke-linecap="round" stroke-linejoin="round" stroke-dasharray="1,6" fill="#eee" fill-opacity="0.5" fill-rule="evenodd" d="M423 506L424 503L418 498L422 496L422 494L420 488L418 488L417 485L412 485L407 482L404 483L403 479L400 477L399 478L397 474L394 473L396 473L395 469L393 469L393 471L389 470L389 468L386 474L384 475L386 479L383 481L376 477L374 470L372 470L369 463L366 463L362 460L358 460L350 452L350 448L342 444L342 441L337 434L337 427L329 427L325 431L326 433L323 435L321 441L322 449L317 453L319 464L316 466L318 471L320 471L320 474L316 479L316 483L318 485L317 486L316 484L315 486L305 487L304 484L302 488L302 490L306 489L308 492L314 492L314 498L313 499L309 495L304 506L301 506L305 507L307 511L299 519L295 529L300 532L301 535L306 535L306 537L308 538L310 535L315 534L319 528L326 526L330 516L338 511L342 514L342 516L353 515L357 524L359 525L363 524L367 527L369 526L377 532L381 530L386 530L386 532L391 536L395 531L399 529L399 527L401 528L403 520L399 514L400 513L401 514L404 512L410 512L423 507zM331 517L332 516z" id="黔西南布依族苗族自治州"/><path class="leaflet-interactive" stroke="#333" stroke-opacity="1" stroke-width="1" stroke-linecap="round" stroke-linejoin="round" stroke-dasharray="1,6" fill="#eee" fill-opacity="0.5" fill-rule="evenodd" d="M518 345L521 349L520 351L515 353L516 357L507 356L508 354L505 354L503 353L504 352L498 350L497 352L499 358L497 361L498 362L496 362L495 364L497 368L493 374L496 377L496 379L498 379L498 377L501 378L501 380L503 380L503 382L498 388L502 396L501 398L497 398L494 395L492 397L492 395L486 400L484 400L484 398L482 398L479 401L476 400L475 403L477 404L473 408L479 412L487 409L488 414L492 413L495 419L503 416L504 420L502 427L507 432L509 429L511 431L512 430L516 435L518 433L526 434L528 432L530 437L533 434L534 437L532 438L533 439L531 443L529 442L527 446L528 447L524 453L525 462L529 461L530 467L533 466L537 470L536 471L538 473L541 472L546 479L550 478L551 481L555 483L558 489L559 484L556 481L558 476L559 478L557 476L561 473L563 474L563 472L561 471L563 466L567 465L571 473L572 471L580 471L583 474L588 471L585 467L588 459L583 458L581 461L576 462L578 458L580 458L584 454L588 455L590 453L592 454L592 458L595 456L593 454L594 453L596 457L601 460L605 458L605 451L611 444L610 442L614 437L612 435L612 432L616 431L615 428L613 428L611 422L613 418L612 417L606 420L600 417L603 409L607 406L607 402L609 401L606 392L604 393L601 390L608 388L607 387L609 388L611 385L614 385L611 376L612 374L616 372L617 373L618 366L616 362L612 362L614 362L612 360L613 359L611 359L609 356L602 358L600 358L599 356L593 363L589 362L591 359L590 358L580 363L578 367L578 365L575 367L569 361L576 359L574 355L570 353L574 347L573 343L575 341L583 341L585 337L582 334L580 335L581 332L578 330L577 332L572 331L572 333L566 333L564 330L557 330L556 333L554 333L550 338L546 337L539 342L533 341L529 347L524 343L519 344zM612 377L615 386L616 377L613 375L612 376zM620 385L617 386L620 387L620 385zM511 356L513 357L515 353L511 355z" id="黔东南苗族侗族自治州"/><path class="leaflet-interactive" stroke="#333" stroke-opacity="1" stroke-width="1" stroke-linecap="round" stroke-linejoin="round" stroke-dasharray="1,6" fill="#eee" fill-opacity="0.5" fill-rule="evenodd" d="M421 420L413 419L412 423L405 423L409 425L406 430L408 431L407 433L405 433L404 437L406 437L410 441L407 444L408 447L405 451L405 460L406 461L410 459L409 462L413 464L417 462L421 465L417 475L415 476L415 478L417 479L415 482L417 483L417 487L420 488L421 490L422 495L419 498L424 503L423 506L427 505L433 498L447 498L448 493L454 494L453 492L455 491L455 486L453 485L452 480L455 476L459 474L458 472L460 470L464 470L468 467L469 471L475 476L474 482L479 481L482 490L484 489L486 491L484 494L485 496L492 492L493 493L492 492L494 491L495 488L497 489L496 490L499 497L502 493L503 494L505 500L503 502L508 502L515 498L526 496L528 491L528 483L531 482L529 480L531 478L535 480L535 477L538 475L536 471L537 470L534 469L534 466L530 467L529 462L525 461L524 456L524 453L526 451L525 450L527 449L529 442L530 443L532 441L534 436L532 434L530 437L528 432L526 434L518 433L516 435L512 430L511 431L509 429L507 432L502 426L504 420L503 416L495 419L494 415L490 413L488 414L487 410L479 412L474 408L477 404L475 400L479 401L482 398L486 400L492 395L492 397L494 395L496 398L502 397L498 388L503 382L503 380L501 380L502 379L498 377L499 378L496 379L496 377L493 374L497 369L495 365L498 362L497 361L499 356L495 348L490 349L489 352L487 350L488 352L486 352L484 349L486 340L482 340L481 343L478 339L480 338L479 336L477 334L471 333L471 336L463 349L469 350L471 352L470 355L466 356L465 364L470 370L472 379L471 382L463 380L453 385L451 392L452 393L448 393L447 394L449 396L444 399L444 403L441 405L443 406L438 411L443 412L443 414L440 416L446 417L447 420L445 422L447 424L443 426L440 420L439 421L434 418L429 423L422 423L422 421zM404 437L404 438z" id="黔南布依族苗族自治州"/></g></svg>