<svg xmlns="http://www.w3.org/2000/svg" pointer-events="none" class="leaflet-zoom-animated" width="954" height="631" viewBox="-64 -10 954 631" style="transform: translate3d(-64px, -10px, 0px);"><g><path class="leaflet-interactive" stroke="black" stroke-opacity="1" stroke-width="2" stroke-linecap="round" stroke-linejoin="round" fill="#fff" fill-opacity="0.2" fill-rule="evenodd" d="M392 421L392 426L399 433L405 433L409 430L413 430L417 432L417 434L420 433L424 439L424 441L422 441L423 451L426 449L435 451L433 457L436 460L435 463L438 464L440 467L442 468L447 465L446 458L447 459L453 453L456 458L455 465L458 468L459 473L462 474L461 478L463 479L465 484L468 485L473 483L473 475L476 476L481 473L484 474L486 472L485 471L488 469L490 469L490 473L492 475L498 468L498 475L500 481L508 484L509 487L511 488L513 485L518 487L520 486L518 484L518 475L520 468L516 447L512 443L516 440L520 440L522 438L523 439L529 434L528 431L530 431L533 427L536 430L557 437L560 436L562 433L562 423L570 416L569 411L573 409L572 408L575 404L574 401L579 397L579 386L582 383L582 376L584 370L587 368L585 361L587 361L588 358L594 356L599 348L595 342L594 337L597 333L597 330L606 325L606 323L603 323L600 326L593 324L590 326L586 326L572 332L570 335L562 334L554 341L551 341L549 348L543 347L532 350L529 348L528 350L526 350L526 348L523 347L517 349L513 348L511 341L505 335L508 332L509 328L507 325L508 322L504 322L504 319L502 317L506 308L503 309L500 307L495 309L488 302L489 301L487 300L487 298L485 298L484 294L480 294L480 291L478 289L476 289L475 292L472 290L471 292L469 292L468 288L462 287L462 284L461 285L458 283L449 286L446 284L442 284L435 277L433 268L436 261L431 259L429 244L420 231L420 226L422 222L419 222L420 225L418 224L420 220L417 217L418 214L415 212L416 209L409 197L412 193L411 191L406 189L409 186L406 185L407 182L405 179L404 180L404 177L401 175L400 176L398 173L401 172L400 170L402 169L400 167L398 169L395 163L392 165L394 160L390 156L389 158L387 155L381 152L376 152L374 153L374 155L370 154L370 152L365 152L359 145L356 146L354 143L351 141L347 141L346 139L344 139L344 141L343 138L342 141L341 139L338 138L334 141L333 140L329 142L319 143L316 140L310 144L305 143L297 147L304 157L299 164L300 165L290 175L292 175L297 180L301 181L300 182L303 186L306 187L311 178L313 180L316 180L319 186L326 188L326 190L322 192L322 194L325 199L325 206L328 211L328 217L331 222L340 224L349 220L352 223L358 221L362 224L363 221L365 220L367 220L368 222L371 221L371 219L373 220L378 211L382 210L388 215L396 226L396 228L401 232L400 237L398 237L398 239L394 243L394 250L389 254L390 255L388 255L389 258L382 266L384 268L383 267L381 271L382 274L380 275L382 279L380 283L382 285L383 292L379 300L377 298L374 298L372 300L373 302L368 311L369 312L367 318L365 320L365 326L367 329L365 333L366 334L363 336L364 333L361 328L361 322L358 322L343 338L338 341L335 346L322 354L318 361L323 369L328 370L326 374L329 375L329 379L332 382L335 381L337 377L339 378L340 375L339 373L338 374L338 372L341 375L343 375L343 378L345 376L345 382L339 383L336 386L332 385L331 391L335 397L337 396L339 398L345 398L350 395L352 396L351 397L353 397L355 405L353 407L355 410L354 413L357 416L357 418L359 417L359 419L362 420L363 424L374 424L375 420L375 422L377 422L379 426L382 424L385 425L386 422L388 423L391 421zM357 249L353 251L354 254L352 256L349 253L348 256L353 263L356 261L360 261L360 263L362 262L364 250L358 249z" id="黑龙江省"/><path class="leaflet-interactive" stroke="#333" stroke-opacity="1" stroke-width="1" stroke-linecap="round" stroke-linejoin="round" stroke-dasharray="1,6" fill="#eee" fill-opacity="0.5" fill-rule="evenodd" d="M394 421L392 421L392 426L399 433L405 433L409 430L413 430L417 432L417 434L420 433L424 439L424 441L422 441L423 451L426 449L435 451L433 454L433 457L436 460L435 463L442 468L447 465L446 458L447 459L451 455L454 449L461 448L461 446L467 441L469 441L469 438L467 436L469 436L472 431L472 429L470 429L469 427L472 425L470 423L470 418L474 418L474 416L476 416L475 415L481 410L480 409L486 409L485 406L487 406L488 408L492 408L493 404L496 401L488 393L492 393L494 391L495 385L493 389L492 386L490 387L488 385L485 388L483 388L481 385L476 384L474 384L472 388L469 387L466 389L462 389L456 385L454 385L453 387L450 386L447 389L440 385L435 389L431 383L426 384L414 394L413 399L411 399L409 403L403 403L405 406L404 407L405 406L407 409L407 413L404 416L399 415L397 420L394 421z" id="哈尔滨市"/><path class="leaflet-interactive" stroke="#333" stroke-opacity="1" stroke-width="1" stroke-linecap="round" stroke-linejoin="round" stroke-dasharray="1,6" fill="#eee" fill-opacity="0.5" fill-rule="evenodd" d="M371 307L368 311L369 312L365 320L365 326L367 329L365 333L366 334L363 336L364 333L361 328L361 322L358 322L343 338L338 341L335 346L322 354L318 361L323 369L328 370L326 374L329 375L329 379L332 382L335 381L337 377L339 378L340 375L339 373L338 374L338 372L341 375L343 375L343 378L345 376L345 382L339 383L336 386L331 386L331 391L335 397L337 396L339 398L345 398L350 395L351 392L349 389L350 387L348 382L349 381L351 383L354 380L352 377L354 372L358 368L361 368L363 366L363 362L365 360L368 362L378 356L378 359L384 360L384 362L386 363L409 360L412 355L411 349L413 345L412 343L414 340L414 334L412 331L406 333L406 329L400 329L396 327L395 320L393 320L393 318L394 319L399 313L395 309L393 311L390 308L383 314L379 314L376 311L377 308L372 307z" id="齐齐哈尔市"/><path class="leaflet-interactive" stroke="#333" stroke-opacity="1" stroke-width="1" stroke-linecap="round" stroke-linejoin="round" stroke-dasharray="1,6" fill="#eee" fill-opacity="0.5" fill-rule="evenodd" d="M531 409L526 408L523 412L523 415L522 414L520 418L514 416L512 416L512 418L508 418L501 428L501 432L499 434L501 436L504 435L505 438L507 439L510 438L512 442L514 442L516 440L520 440L522 438L523 439L529 434L528 431L530 431L533 427L536 430L557 437L560 436L562 433L562 423L570 416L569 411L573 409L572 408L575 404L574 401L579 397L578 394L580 392L578 388L568 388L564 386L564 388L558 394L558 399L556 401L554 401L553 399L546 406L544 404L542 406L542 410L540 411L534 410L532 412L531 409z" id="鸡西市"/><path class="leaflet-interactive" stroke="#333" stroke-opacity="1" stroke-width="1" stroke-linecap="round" stroke-linejoin="round" stroke-dasharray="1,6" fill="#eee" fill-opacity="0.5" fill-rule="evenodd" d="M508 326L503 329L496 329L496 333L493 334L488 328L486 330L483 342L485 346L488 348L489 353L487 355L487 361L489 364L492 365L496 370L504 368L506 365L503 362L504 361L508 363L513 362L512 365L515 366L521 366L524 364L531 363L536 364L538 359L544 356L548 348L543 347L532 350L529 348L528 350L526 350L526 348L523 347L517 349L513 348L511 341L505 335L508 332L509 327z" id="鹤岗市"/><path class="leaflet-interactive" stroke="#333" stroke-opacity="1" stroke-width="1" stroke-linecap="round" stroke-linejoin="round" stroke-dasharray="1,6" fill="#eee" fill-opacity="0.5" fill-rule="evenodd" d="M593 357L594 346L592 342L592 344L589 346L589 350L586 351L586 353L583 352L584 353L582 353L582 355L574 354L572 358L570 357L565 362L562 376L560 376L554 381L552 378L546 378L544 380L541 379L540 376L542 374L538 373L534 373L532 374L532 376L525 376L526 370L523 370L517 374L509 374L510 375L507 378L505 378L505 380L507 382L507 386L511 386L514 389L513 391L515 393L519 393L519 395L529 399L529 402L533 403L534 405L531 408L531 412L533 412L534 409L535 411L542 410L542 406L544 404L546 406L552 399L555 401L558 398L558 394L564 389L563 388L566 385L566 387L574 387L578 389L579 388L579 386L582 383L582 376L584 370L587 368L585 361L587 361L588 358L592 357z" id="双鸭山市"/><path class="leaflet-interactive" stroke="#333" stroke-opacity="1" stroke-width="1" stroke-linecap="round" stroke-linejoin="round" stroke-dasharray="1,6" fill="#eee" fill-opacity="0.5" fill-rule="evenodd" d="M384 363L384 361L378 359L378 356L368 362L363 361L364 362L362 368L358 368L352 376L354 381L351 383L349 381L348 382L351 392L350 395L352 396L351 397L353 397L355 405L353 407L355 410L354 413L357 416L357 418L359 417L359 419L362 420L363 424L374 424L375 420L375 422L377 422L379 426L382 424L385 425L386 422L388 423L390 421L394 421L393 416L395 415L393 414L394 413L392 408L386 409L385 401L381 401L378 397L378 400L382 401L379 405L377 403L374 404L374 400L378 397L376 391L378 389L381 390L379 391L381 392L383 391L380 388L382 389L381 385L383 384L380 378L384 371L384 367z" id="大庆市"/><path class="leaflet-interactive" stroke="#333" stroke-opacity="1" stroke-width="1" stroke-linecap="round" stroke-linejoin="round" stroke-dasharray="1,6" fill="#eee" fill-opacity="0.5" fill-rule="evenodd" d="M450 386L453 387L455 385L459 387L460 386L461 389L468 389L470 387L472 388L474 384L479 385L484 381L480 376L480 371L484 369L483 368L488 362L487 354L489 354L489 350L483 342L485 338L484 335L486 333L485 330L487 330L487 328L493 334L496 333L497 329L501 327L502 329L506 328L508 326L508 322L504 322L504 319L502 317L506 308L503 309L500 307L495 309L488 302L489 301L487 300L487 298L485 298L484 294L480 294L480 291L478 289L476 289L476 291L472 292L471 294L473 301L478 304L477 305L479 309L473 312L474 313L471 313L473 315L471 318L468 319L466 324L467 325L463 330L462 325L455 326L452 332L453 333L451 333L448 336L448 341L449 340L453 344L451 344L452 348L450 355L453 357L453 359L455 359L455 361L457 359L456 363L449 369L444 369L436 373L438 373L437 374L449 386z" id="伊春市"/><path class="leaflet-interactive" stroke="#333" stroke-opacity="1" stroke-width="1" stroke-linecap="round" stroke-linejoin="round" stroke-dasharray="1,6" fill="#eee" fill-opacity="0.5" fill-rule="evenodd" d="M593 357L597 353L599 348L595 342L594 337L597 333L597 330L606 325L606 323L603 323L600 326L593 324L590 326L586 326L572 332L570 335L560 335L554 341L551 341L549 348L546 350L547 351L543 357L537 360L536 364L531 363L516 366L512 365L513 362L508 363L504 361L503 362L506 365L503 368L497 370L492 365L490 365L489 362L487 364L486 363L484 370L481 371L480 374L484 381L479 384L483 388L485 388L488 385L490 387L491 386L491 388L493 389L495 385L493 392L488 393L490 395L491 394L494 399L503 406L505 407L507 405L514 404L518 405L519 403L520 406L523 398L519 395L519 393L515 392L514 389L512 389L512 386L507 386L505 378L507 378L510 375L509 374L517 374L525 370L525 376L533 376L532 374L537 373L542 374L540 376L541 379L544 380L546 378L552 378L556 380L560 376L562 376L564 372L563 371L565 362L569 357L571 358L574 354L581 355L584 353L583 352L586 353L586 351L589 350L589 346L590 344L592 344L592 342L594 348L593 347L593 354zM524 397L526 401L527 398L525 398z" id="佳木斯市"/><path class="leaflet-interactive" stroke="#333" stroke-opacity="1" stroke-width="1" stroke-linecap="round" stroke-linejoin="round" stroke-dasharray="1,6" fill="#eee" fill-opacity="0.5" fill-rule="evenodd" d="M527 398L526 401L525 398L524 399L524 397L522 397L523 398L519 406L519 404L516 405L514 403L514 405L506 405L506 407L496 401L493 404L493 408L495 410L494 416L495 415L495 417L496 416L498 418L499 416L505 419L507 417L512 418L512 416L514 416L520 419L521 415L524 414L523 412L525 409L531 409L534 405L534 403L529 402L528 398L527 399z" id="七台河市"/><path class="leaflet-interactive" stroke="#333" stroke-opacity="1" stroke-width="1" stroke-linecap="round" stroke-linejoin="round" stroke-dasharray="1,6" fill="#eee" fill-opacity="0.5" fill-rule="evenodd" d="M450 456L453 453L455 455L455 465L458 468L459 473L462 474L461 478L463 479L465 484L468 485L473 483L473 475L476 476L481 473L484 474L486 472L485 471L488 469L490 469L490 473L492 475L498 468L498 475L500 481L508 484L509 487L511 488L513 485L516 487L520 486L518 484L518 475L520 468L516 447L509 438L508 439L503 435L501 436L499 434L501 432L501 428L508 419L501 418L499 416L497 418L496 416L495 417L494 408L488 408L486 406L485 409L480 409L481 410L477 414L475 414L476 416L474 416L474 418L471 418L470 423L472 425L469 426L472 429L472 431L470 433L471 434L467 436L469 440L464 443L462 448L454 448L451 452L451 455z" id="牡丹江市"/><path class="leaflet-interactive" stroke="#333" stroke-opacity="1" stroke-width="1" stroke-linecap="round" stroke-linejoin="round" stroke-dasharray="1,6" fill="#eee" fill-opacity="0.5" fill-rule="evenodd" d="M400 236L396 240L397 241L394 242L395 249L389 254L390 255L388 255L389 258L382 266L384 268L382 268L382 274L380 275L382 277L381 282L380 281L383 288L383 292L381 295L382 296L379 300L377 298L374 298L372 300L373 302L371 307L377 308L376 311L379 314L382 314L386 311L387 312L387 310L390 308L392 311L395 309L399 313L396 316L397 317L393 319L395 320L395 325L400 329L405 329L407 332L406 333L411 331L414 334L411 349L412 353L413 350L417 347L422 348L434 344L438 346L444 335L447 337L451 333L452 334L456 326L461 325L464 330L466 328L468 319L471 318L473 315L471 313L478 310L479 307L477 305L478 304L473 301L471 294L473 291L474 292L472 290L471 292L469 292L468 288L462 287L462 284L461 285L458 283L449 286L446 284L442 284L437 280L433 270L436 261L431 259L429 244L422 234L422 236L419 237L410 237L405 233L403 235L402 234L402 236L400 236z" id="黑河市"/><path class="leaflet-interactive" stroke="#333" stroke-opacity="1" stroke-width="1" stroke-linecap="round" stroke-linejoin="round" stroke-dasharray="1,6" fill="#eee" fill-opacity="0.5" fill-rule="evenodd" d="M394 421L396 421L400 415L404 416L407 413L408 409L406 408L406 406L405 407L403 403L409 403L411 399L413 399L414 394L426 384L431 383L435 389L440 386L449 388L450 386L448 386L437 374L438 373L436 373L444 369L447 370L456 364L457 358L455 361L455 359L453 359L453 357L450 354L452 342L450 340L448 341L447 336L444 335L442 337L442 341L438 346L434 344L431 346L425 346L420 348L417 347L412 352L412 355L409 360L384 363L384 371L380 377L380 380L383 383L381 384L382 388L380 388L383 390L382 392L379 391L381 390L378 389L378 396L374 400L374 403L379 404L382 401L379 400L379 397L379 399L385 401L386 409L392 408L394 412L393 413L395 415L393 417L393 420z" id="绥化市"/><path class="leaflet-interactive" stroke="#333" stroke-opacity="1" stroke-width="1" stroke-linecap="round" stroke-linejoin="round" stroke-dasharray="1,6" fill="#eee" fill-opacity="0.5" fill-rule="evenodd" d="M423 234L420 231L420 226L422 222L419 222L420 225L418 224L420 220L417 217L418 214L415 212L416 209L409 197L412 193L411 191L406 189L409 186L406 185L407 182L405 179L404 180L404 177L401 175L400 176L398 173L401 172L400 170L402 169L400 167L398 169L395 163L392 165L394 160L390 156L389 158L387 155L381 152L376 152L374 153L374 155L370 154L370 152L365 152L359 145L356 146L354 143L351 141L347 141L346 139L344 139L344 141L343 138L342 141L341 139L338 138L334 141L333 140L329 142L319 143L316 140L310 144L305 143L297 147L304 157L299 164L300 165L290 175L292 175L297 180L301 181L300 182L303 186L306 187L311 178L313 180L316 180L319 186L326 188L326 190L322 192L322 194L325 199L325 206L328 211L328 217L331 222L340 224L349 220L352 223L358 221L362 224L363 221L365 220L367 220L368 222L371 221L371 219L373 220L378 211L382 210L388 215L396 226L396 228L401 232L400 235L402 236L402 234L403 235L405 233L410 237L419 237L422 236L422 234zM357 249L353 251L354 254L352 256L349 253L348 256L353 263L356 261L360 261L360 263L362 262L364 250L358 249z" id="大兴安岭地区"/></g></svg>