<svg xmlns="http://www.w3.org/2000/svg" pointer-events="none" class="leaflet-zoom-animated" width="954" height="631" viewBox="-85 60 954 631" style="transform: translate3d(-85px, 60px, 0px);"><g><path class="leaflet-interactive" stroke="black" stroke-opacity="1" stroke-width="2" stroke-linecap="round" stroke-linejoin="round" fill="#fff" fill-opacity="0.2" fill-rule="evenodd" d="M447 527L442 536L442 539L439 541L437 539L434 539L431 544L428 545L428 541L420 547L413 543L412 544L414 547L409 547L408 548L410 549L405 553L403 557L401 557L401 559L399 560L400 561L397 562L394 566L393 569L395 572L393 575L391 572L391 579L381 581L378 580L378 578L371 576L365 570L362 571L356 569L354 567L356 565L357 559L362 552L360 551L359 546L356 545L354 547L350 547L351 549L348 550L345 555L342 577L339 580L336 579L327 583L320 583L319 585L317 585L309 578L304 576L304 572L306 570L304 565L311 560L317 553L314 547L315 544L311 543L305 545L298 551L289 548L280 551L282 555L278 560L275 560L269 556L269 552L265 554L264 552L263 553L263 544L257 545L257 543L247 535L240 534L247 532L252 526L253 517L251 513L244 512L242 514L236 514L235 517L233 515L230 517L230 519L226 516L227 518L223 520L223 513L217 509L211 501L215 497L204 472L241 477L259 474L278 478L283 484L293 486L304 492L312 494L322 492L322 497L330 498L342 490L370 479L377 481L382 479L392 481L395 479L399 480L416 473L427 460L435 457L442 452L442 449L437 444L433 436L436 432L435 431L439 423L443 421L449 421L456 426L469 429L471 426L476 424L484 414L497 414L505 410L507 407L511 405L511 401L516 393L529 391L531 386L533 386L534 388L543 383L552 384L553 382L560 386L566 386L570 384L570 380L567 373L560 366L561 365L558 364L557 361L551 358L548 353L537 352L529 361L521 355L511 356L506 360L500 354L499 349L504 346L504 340L518 307L527 313L536 315L545 308L547 308L548 305L557 304L561 299L560 294L559 295L557 293L563 285L563 281L567 277L567 273L571 268L572 262L582 254L582 251L584 249L581 244L583 238L579 236L572 237L572 232L586 218L589 219L595 217L598 219L600 225L597 231L590 237L592 237L601 245L603 245L606 239L611 245L616 245L616 248L613 251L615 253L615 259L619 270L624 272L629 271L631 268L634 270L638 269L640 271L642 271L643 269L646 270L651 267L650 266L653 264L653 261L656 262L662 268L666 275L668 275L668 281L664 285L664 291L660 294L659 298L656 301L657 302L655 305L656 307L654 313L656 321L654 325L649 324L644 339L645 345L643 350L640 342L641 340L639 340L628 352L624 354L622 358L613 363L612 367L610 368L613 373L617 375L616 378L618 377L618 381L620 383L626 379L624 376L628 378L628 381L629 379L630 380L630 383L625 384L623 386L620 385L622 395L616 398L617 402L614 407L614 405L611 403L609 402L608 405L601 399L598 406L603 407L603 411L606 413L607 418L605 420L604 425L606 429L605 432L608 436L608 440L614 439L620 434L626 442L625 445L628 454L626 454L627 455L625 455L625 457L631 459L630 466L625 467L622 469L620 473L619 472L617 474L612 471L609 472L611 473L609 475L607 473L602 474L601 478L598 480L593 479L588 484L586 483L579 487L579 489L577 489L573 496L569 486L565 484L563 481L559 485L561 489L560 496L562 501L558 505L545 503L541 495L544 492L544 488L543 487L542 489L540 487L541 486L539 484L539 480L535 476L531 476L529 478L530 479L524 479L521 481L522 484L520 486L520 490L515 491L512 489L508 494L505 491L502 492L496 496L497 498L495 497L494 499L492 497L488 498L490 493L488 486L484 486L482 488L483 490L480 490L478 494L478 500L476 499L473 501L473 504L475 506L472 509L476 512L476 520L473 522L471 521L468 525L465 525L463 523L457 525L456 528L453 528L451 526L448 527zM641 299L641 294L643 294L643 290L638 289L635 291L636 293L635 294L633 292L632 295L635 299L640 299z" id="内蒙古自治区"/><path class="leaflet-interactive" stroke="#333" stroke-opacity="1" stroke-width="1" stroke-linecap="round" stroke-linejoin="round" stroke-dasharray="1,6" fill="#eee" fill-opacity="0.5" fill-rule="evenodd" d="M427 526L433 532L432 538L436 540L437 539L439 541L444 534L447 525L443 520L443 518L445 517L445 513L438 504L433 504L430 506L426 503L422 503L419 505L421 507L423 519L428 524L427 525z" id="呼和浩特市"/><path class="leaflet-interactive" stroke="#333" stroke-opacity="1" stroke-width="1" stroke-linecap="round" stroke-linejoin="round" stroke-dasharray="1,6" fill="#eee" fill-opacity="0.5" fill-rule="evenodd" d="M433 504L434 501L432 497L428 494L423 486L422 480L416 473L400 480L403 486L399 492L401 499L405 501L405 509L409 513L406 516L401 517L401 521L403 520L405 522L413 520L417 524L425 527L428 524L423 519L423 515L420 511L421 507L419 505L422 503L426 503L430 506L432 504z" id="包头市"/><path class="leaflet-interactive" stroke="#333" stroke-opacity="1" stroke-width="1" stroke-linecap="round" stroke-linejoin="round" stroke-dasharray="1,6" fill="#eee" fill-opacity="0.5" fill-rule="evenodd" d="M358 535L359 538L356 541L361 552L363 552L364 547L361 547L361 535L358 535z" id="乌海市"/><path class="leaflet-interactive" stroke="#333" stroke-opacity="1" stroke-width="1" stroke-linecap="round" stroke-linejoin="round" stroke-dasharray="1,6" fill="#eee" fill-opacity="0.5" fill-rule="evenodd" d="M585 483L580 478L577 466L584 458L578 459L587 453L584 449L582 441L577 438L576 434L570 426L567 425L566 420L561 417L561 421L559 419L558 420L559 425L557 424L556 426L558 428L555 429L555 433L549 435L546 438L543 438L543 440L540 443L538 442L534 445L534 443L531 440L526 440L522 445L524 451L513 462L513 464L518 470L516 476L520 477L521 480L530 479L529 478L531 476L535 476L539 480L539 484L541 486L540 487L542 489L543 488L544 490L544 494L541 494L542 498L544 499L543 501L546 504L560 504L562 500L562 498L560 497L560 485L563 481L569 485L573 496L577 489L579 489L579 487L585 484z" id="赤峰市"/><path class="leaflet-interactive" stroke="#333" stroke-opacity="1" stroke-width="1" stroke-linecap="round" stroke-linejoin="round" stroke-dasharray="1,6" fill="#eee" fill-opacity="0.5" fill-rule="evenodd" d="M585 483L588 484L593 479L597 478L599 480L602 474L607 473L609 475L611 473L609 472L610 471L615 472L617 474L619 472L620 473L623 471L622 470L625 467L630 466L631 459L626 458L624 455L627 455L626 454L628 454L628 452L625 446L626 442L621 436L621 434L612 440L606 440L602 438L594 427L588 423L586 420L587 419L582 416L578 411L572 409L571 412L564 408L560 412L559 416L566 420L567 425L569 425L574 431L578 439L582 440L582 444L587 453L578 459L583 458L577 465L580 478L584 481z" id="通辽市"/><path class="leaflet-interactive" stroke="#333" stroke-opacity="1" stroke-width="1" stroke-linecap="round" stroke-linejoin="round" stroke-dasharray="1,6" fill="#eee" fill-opacity="0.5" fill-rule="evenodd" d="M361 552L354 567L356 569L361 571L364 570L371 576L378 578L378 580L380 581L391 580L391 573L393 575L395 573L393 570L394 566L401 559L401 557L408 550L409 551L410 549L408 548L412 548L413 543L416 546L419 545L420 547L422 547L423 544L427 541L429 541L427 544L428 545L431 544L433 542L433 533L429 527L419 525L416 522L415 523L413 520L406 522L404 520L398 522L395 520L390 520L391 519L385 515L376 513L373 516L367 518L364 522L365 524L363 524L358 531L358 536L361 534L361 546L363 548L364 547L362 552z" id="鄂尔多斯市"/><path class="leaflet-interactive" stroke="#333" stroke-opacity="1" stroke-width="1" stroke-linecap="round" stroke-linejoin="round" stroke-dasharray="1,6" fill="#eee" fill-opacity="0.5" fill-rule="evenodd" d="M610 368L605 372L598 370L598 372L587 374L581 371L583 367L580 364L581 363L580 364L575 361L570 363L565 368L563 368L560 366L561 365L558 364L557 361L551 358L548 353L545 352L537 352L529 361L521 355L511 356L506 360L500 354L499 349L504 346L504 340L518 307L527 313L536 315L545 308L547 308L548 305L557 304L561 299L560 294L559 295L557 293L563 285L563 281L567 277L567 273L571 268L572 262L582 254L582 251L584 249L581 244L583 238L579 236L572 237L572 232L586 218L589 219L595 217L598 219L600 223L597 231L590 237L592 237L601 245L603 245L606 239L611 245L616 245L616 248L613 251L615 253L615 259L619 270L624 272L629 271L631 268L634 270L638 269L640 271L642 271L643 269L646 270L651 267L650 266L653 264L653 261L656 262L662 268L666 275L668 275L668 281L664 285L664 291L660 294L659 298L656 301L657 302L655 305L656 307L654 313L656 321L654 325L649 324L644 339L645 345L643 350L640 342L641 340L639 340L628 352L624 354L622 358L613 363L612 367zM641 299L641 294L643 294L643 290L638 289L635 291L636 293L635 294L633 292L632 295L635 299L640 299z" id="呼伦贝尔市"/><path class="leaflet-interactive" stroke="#333" stroke-opacity="1" stroke-width="1" stroke-linecap="round" stroke-linejoin="round" stroke-dasharray="1,6" fill="#eee" fill-opacity="0.5" fill-rule="evenodd" d="M360 528L365 524L364 522L367 518L373 516L376 513L384 515L391 519L390 520L400 522L401 517L406 516L409 513L405 509L405 500L401 500L399 493L402 488L401 480L395 479L392 481L382 479L377 481L370 479L342 490L333 496L333 502L336 510L341 515L354 520L354 522L349 521L351 525L359 524L358 528L360 528z" id="巴彦淖尔市"/><path class="leaflet-interactive" stroke="#333" stroke-opacity="1" stroke-width="1" stroke-linecap="round" stroke-linejoin="round" stroke-dasharray="1,6" fill="#eee" fill-opacity="0.5" fill-rule="evenodd" d="M447 527L451 526L455 528L459 524L463 523L464 525L468 525L469 523L476 521L475 519L477 516L475 514L476 512L474 512L473 509L473 507L475 507L473 501L475 499L478 500L478 494L480 491L483 490L482 488L484 486L488 486L484 483L481 485L481 487L479 485L476 488L476 490L468 486L465 486L460 491L452 482L443 477L438 468L429 459L416 473L422 480L427 494L433 499L433 504L439 505L445 513L444 520L447 525z" id="乌兰察布市"/><path class="leaflet-interactive" stroke="#333" stroke-opacity="1" stroke-width="1" stroke-linecap="round" stroke-linejoin="round" stroke-dasharray="1,6" fill="#eee" fill-opacity="0.5" fill-rule="evenodd" d="M608 440L608 436L605 432L606 429L604 425L607 416L603 411L603 407L598 406L601 399L608 405L609 402L611 402L612 405L614 405L614 407L617 402L616 398L622 395L620 386L629 384L630 381L628 381L628 378L624 376L626 378L625 380L623 380L621 383L619 382L618 377L616 377L617 375L613 373L610 369L608 369L605 372L598 370L598 372L587 374L581 371L583 367L580 364L581 363L580 364L575 361L570 363L565 368L563 368L564 371L567 372L570 379L571 391L569 391L568 404L564 408L570 410L571 412L572 409L576 410L580 413L580 415L587 419L586 420L588 423L594 426L602 438L606 440L607 439z" id="兴安盟"/><path class="leaflet-interactive" stroke="#333" stroke-opacity="1" stroke-width="1" stroke-linecap="round" stroke-linejoin="round" stroke-dasharray="1,6" fill="#eee" fill-opacity="0.5" fill-rule="evenodd" d="M488 486L490 493L488 498L496 498L499 494L504 491L508 494L513 489L514 491L520 489L520 486L522 484L521 478L516 476L518 470L514 466L513 462L517 458L517 456L520 457L521 453L524 451L522 446L526 440L530 440L534 443L534 445L536 445L538 442L540 443L543 440L543 438L547 438L549 435L555 433L554 429L557 428L556 424L559 425L559 419L561 421L561 417L559 416L560 412L568 404L569 392L570 390L571 391L570 384L566 386L561 386L553 382L550 384L544 383L534 388L531 386L529 391L520 391L516 393L511 401L511 405L507 407L505 410L497 414L484 414L477 424L473 425L469 429L456 426L452 424L450 421L444 421L439 423L433 438L442 449L442 451L435 457L429 459L430 461L438 468L441 474L452 482L454 486L460 491L465 486L468 486L475 490L476 487L479 485L482 487L481 485L483 485L484 483L487 485z" id="锡林郭勒盟"/><path class="leaflet-interactive" stroke="#333" stroke-opacity="1" stroke-width="1" stroke-linecap="round" stroke-linejoin="round" stroke-dasharray="1,6" fill="#eee" fill-opacity="0.5" fill-rule="evenodd" d="M334 495L330 498L322 497L322 492L312 494L304 492L293 486L283 484L278 478L259 474L241 477L204 472L215 497L211 501L217 509L223 513L223 520L227 518L226 516L228 516L230 519L230 517L233 515L235 518L236 514L242 514L244 512L251 513L253 517L252 526L249 528L247 532L240 534L247 535L253 539L257 543L257 545L263 544L263 553L269 552L269 556L271 556L270 557L275 560L278 560L283 555L279 551L287 548L297 551L305 545L311 543L315 544L314 547L317 550L317 552L311 560L304 565L306 568L304 576L317 585L327 583L335 579L339 580L343 576L342 570L344 567L344 557L347 551L351 549L350 547L358 545L356 542L359 538L358 531L360 528L358 528L357 526L359 524L351 525L349 521L354 522L354 520L349 517L341 515L336 511L333 502L333 496z" id="阿拉善盟"/></g></svg>