<svg xmlns="http://www.w3.org/2000/svg" pointer-events="none" class="leaflet-zoom-animated" width="954" height="631" viewBox="-90 36 954 631" style="transform: translate3d(-90px, 36px, 0px);"><g><path class="leaflet-interactive" stroke="black" stroke-opacity="1" stroke-width="2" stroke-linecap="round" stroke-linejoin="round" fill="#fff" fill-opacity="0.2" fill-rule="evenodd" d="M273 324L271 322L270 330L261 330L261 338L258 339L258 342L256 344L249 344L248 351L245 352L244 356L246 358L245 363L246 365L249 366L248 370L250 371L250 373L252 373L251 375L253 372L254 376L259 376L260 379L262 379L259 383L260 384L265 382L270 392L275 393L277 396L277 405L281 407L281 412L279 416L281 426L279 426L282 426L283 428L286 429L284 430L281 436L285 442L284 444L286 443L281 448L282 450L286 453L287 449L290 450L292 448L295 448L296 451L298 451L300 449L302 450L305 445L307 445L310 451L316 454L311 460L315 462L315 465L309 468L307 473L308 480L310 483L316 486L319 497L318 499L324 508L322 508L321 510L325 517L323 524L320 526L323 531L329 534L332 531L331 529L335 529L336 531L341 533L343 531L345 532L343 533L344 536L346 537L357 537L359 533L364 530L365 526L371 525L372 528L376 525L378 513L382 513L382 511L388 511L392 514L390 520L394 521L393 525L396 525L397 527L397 533L395 536L404 546L403 549L407 550L410 547L418 548L418 546L424 541L428 545L436 537L448 536L447 538L449 540L451 540L452 538L454 540L455 539L456 546L458 546L463 554L460 555L463 564L471 566L476 557L476 555L474 554L476 548L485 543L485 537L488 531L486 530L481 521L485 518L487 511L494 505L494 501L500 502L509 488L512 489L517 494L524 497L529 496L527 498L528 499L533 495L532 490L529 489L530 487L520 488L514 483L520 467L525 463L528 474L538 474L542 471L543 466L545 464L548 464L551 457L556 452L559 446L563 446L567 449L567 451L572 452L574 449L573 447L576 443L573 442L573 440L578 435L575 431L576 429L572 419L568 417L564 410L577 405L579 392L578 389L575 387L584 389L585 384L579 375L580 371L575 368L575 363L570 356L580 361L583 360L585 356L587 363L589 362L591 365L595 363L597 367L599 366L601 369L603 368L605 358L601 355L604 351L603 348L606 346L600 343L602 339L600 335L605 327L603 321L604 315L606 313L603 307L597 306L594 308L591 306L599 296L606 294L610 288L619 282L616 279L614 279L613 281L607 281L606 277L603 274L601 274L598 278L586 270L581 270L578 268L571 260L569 254L560 242L551 234L549 230L545 227L535 227L523 215L520 210L528 206L530 203L535 202L538 198L540 198L539 193L535 187L531 188L525 186L527 182L525 179L520 180L518 182L516 181L514 183L517 177L514 174L514 162L511 162L510 160L509 163L505 162L502 165L498 163L494 164L492 168L486 168L489 172L489 176L487 178L486 176L483 180L477 179L471 188L468 189L462 171L462 174L457 176L457 169L452 171L437 170L424 161L416 146L413 147L408 145L408 147L406 148L404 145L401 145L397 147L394 146L389 150L392 152L390 154L390 162L386 166L383 175L385 182L383 182L379 188L376 188L377 195L372 201L370 201L368 197L363 200L361 204L354 205L357 208L354 212L357 215L361 213L363 214L363 222L365 225L364 226L366 227L366 229L369 230L364 233L364 231L362 230L357 234L355 233L353 239L341 235L338 237L333 235L329 231L322 236L324 246L326 247L325 250L319 252L320 254L323 254L321 257L321 262L324 266L323 276L319 275L319 280L313 286L311 285L311 288L309 289L309 297L307 300L305 300L301 307L294 307L287 314L287 320L277 321L274 324zM629 262L633 261L631 258L623 258L616 253L610 254L602 250L600 252L608 270L621 270L628 273L631 276L637 272L637 268L632 262L630 263zM663 183L662 182zM619 249L619 254L621 255L626 249L621 248zM625 300L628 303L631 303L625 299zM645 191L646 196L655 195L645 191zM621 235L618 235L614 238L610 238L618 243L627 245L626 239L628 238L625 234L622 234zM635 243L631 244L636 245L639 244L639 242L642 246L645 243L642 240L635 241zM608 355L607 358L611 357L612 355L611 356L609 352L609 355zM667 180L669 180L668 178zM592 402L593 403L596 399L592 400L593 401zM677 186L677 187zM583 406L588 406L585 406L586 405L584 404L584 406zM636 276L635 277L640 281L640 286L644 287L642 283L644 283L645 279L643 278L645 278L643 274L638 274zM645 226L645 222L640 221L641 219L632 219L631 225L643 226zM627 388L628 388zM622 331L626 328L622 330zM550 465L551 464zM598 404L600 403L598 403zM591 398L593 397L593 393L592 396zM635 215L637 216L637 214zM647 224L648 226L650 225L648 224zM577 438L578 438zM649 245L652 247L650 245zM630 286L628 285L626 287L634 294L635 293L633 289L635 288L631 285zM633 217L635 217zM625 307L627 308zM512 513L514 512L513 511L512 513zM670 249L670 247zM645 266L645 265zM623 289L624 290L623 288L622 289zM587 365L590 369L591 365L589 363L586 364zM533 516L534 517L534 515zM622 326L623 327L623 325zM608 309L608 311L609 309zM629 386L630 386zM654 246L653 245zM601 187L602 195L605 200L611 203L612 205L617 206L618 205L607 199L605 196L603 186zM664 248L665 250L664 247zM630 246L631 245zM596 429L598 426L596 424L594 426L594 429zM576 449L576 448zM525 486L526 486zM622 306L625 302L624 300L619 296L618 291L613 292L610 299L612 301L616 299L619 305L622 305zM627 303L628 303zM648 191L647 189L647 191zM638 206L640 207zM613 206L611 207L612 209L615 207zM639 286L640 288L640 286zM627 305L628 305zM604 350L605 350zM552 469L552 467L551 469zM648 275L647 277zM658 201L657 200L659 200L657 198L656 201zM622 245L622 247L624 247L623 245zM644 204L645 204zM604 325L605 324zM527 502L527 502zM527 501L527 500zM594 434L598 432L596 431L594 433zM625 246L628 246L625 246zM604 322L606 322L605 321zM577 364L577 362zM620 309L619 310L620 309zM578 365L579 365zM612 250L611 248L608 248L608 252L611 251zM641 272L642 269L644 269L642 268L642 266L640 267L640 272zM596 260L593 259L591 264L591 270L594 273L600 270L599 265L595 260zM524 535L524 533L521 531L519 533L523 534zM635 245L636 245zM590 262L592 263L592 261L590 261zM601 354L603 357L603 354zM635 287L635 286zM609 295L607 296L607 299L610 295zM506 509L507 508zM534 517L536 517zM653 201L653 201zM619 205L618 204zM671 251L671 250zM654 199L655 200L654 198zM600 257L598 259L599 262L601 262L602 260L601 257zM522 499L521 500L523 499zM602 239L606 237L604 234L605 233L600 234L599 237zM668 249L669 250L667 247zM576 367L575 368L577 368zM577 439L577 439zM626 289L627 290zM599 370L602 369L599 370zM644 197L643 198L645 198zM592 434L593 433zM606 349L606 351L607 350zM571 206L573 205L571 205zM622 272L619 272L622 274L624 273zM617 246L619 246zM593 257L594 258zM626 297L627 297zM606 331L607 331zM528 502L529 502zM624 298L625 298zM499 510L500 511L499 510zM632 298L634 297L629 295L628 292L625 292L627 296L630 298zM535 496L534 496zM620 208L620 208zM629 214L631 215L630 214zM572 454L573 453zM604 339L603 338zM675 255L676 256L675 254zM623 291L622 292L624 291zM499 514L498 515L500 513zM619 273L619 275L621 275L621 273zM647 272L647 273zM560 470L562 468L563 469L563 467L561 469zM648 226L649 226zM546 468L549 467L546 468zM636 206L635 207L637 206zM630 241L630 245L634 243L633 241zM631 284L634 285L637 283L637 281L632 282zM665 184L666 183L664 183zM677 196L678 192L675 194L676 195zM604 259L603 260L604 259zM533 518L534 517zM524 484L529 481L527 479L518 481L518 483L522 483zM589 414L588 415L590 415zM612 270L612 272L614 271L613 269zM619 273L617 273L619 273zM604 262L605 260L603 261zM505 507L504 508L506 508zM641 191L641 189zM622 332L622 332zM577 362L578 361zM632 202L631 202zM532 481L537 478L532 477L530 480zM621 290L622 291L622 289L620 290zM647 274L647 274zM528 476L530 475L528 475zM682 196L682 193L679 193L681 194zM607 279L608 280L606 278zM618 271L619 271zM614 275L613 274L613 276L615 276zM626 299L627 299zM625 274L631 276L628 273L623 272zM616 273L616 272zM603 263L602 264L603 263zM608 274L609 276L611 274L610 273zM519 480L523 477L519 478zM629 283L631 284L630 282L628 282zM623 294L624 294zM600 432L601 431zM606 280L607 280zM632 277L634 277L634 275L632 276zM625 302L627 302zM610 271L610 270zM522 536L523 537L522 536zM525 532L526 532zM633 280L634 280zM523 529L523 530z" id="浙江省"/><path class="leaflet-interactive" stroke="#333" stroke-opacity="1" stroke-width="1" stroke-linecap="round" stroke-linejoin="round" stroke-dasharray="1,6" fill="#eee" fill-opacity="0.5" fill-rule="evenodd" d="M450 236L448 236L449 235L445 233L446 228L444 228L440 239L441 242L438 243L436 248L440 248L451 237z" id="上城区"/><path class="leaflet-interactive" stroke="#333" stroke-opacity="1" stroke-width="1" stroke-linecap="round" stroke-linejoin="round" stroke-dasharray="1,6" fill="#eee" fill-opacity="0.5" fill-rule="evenodd" d="M431 234L434 239L437 238L438 242L441 242L440 239L441 236L443 236L442 233L444 228L439 230L436 229L436 233L432 234z" id="拱墅区"/><path class="leaflet-interactive" stroke="#333" stroke-opacity="1" stroke-width="1" stroke-linecap="round" stroke-linejoin="round" stroke-dasharray="1,6" fill="#eee" fill-opacity="0.5" fill-rule="evenodd" d="M423 250L425 250L424 257L427 260L433 261L435 259L437 260L440 258L435 252L437 248L436 247L438 245L438 240L436 238L433 239L432 235L429 232L425 234L426 237L429 238L429 242L424 247L424 249z" id="西湖区"/><path class="leaflet-interactive" stroke="#333" stroke-opacity="1" stroke-width="1" stroke-linecap="round" stroke-linejoin="round" stroke-dasharray="1,6" fill="#eee" fill-opacity="0.5" fill-rule="evenodd" d="M444 244L435 250L437 255L439 253L443 255L443 252L445 250L444 244z" id="滨江区"/><path class="leaflet-interactive" stroke="#333" stroke-opacity="1" stroke-width="1" stroke-linecap="round" stroke-linejoin="round" stroke-dasharray="1,6" fill="#eee" fill-opacity="0.5" fill-rule="evenodd" d="M483 246L483 244L476 245L475 242L470 244L467 243L464 240L464 238L457 243L455 243L451 239L447 240L444 244L444 255L439 253L437 255L440 257L435 264L436 267L433 271L433 276L431 279L432 283L434 285L437 283L437 279L442 278L442 276L447 275L449 278L451 276L452 277L455 274L455 272L457 272L455 265L453 265L454 260L450 258L451 255L453 256L456 253L458 253L461 256L461 254L462 253L462 255L464 255L466 251L478 254L482 246z" id="萧山区"/><path class="leaflet-interactive" stroke="#333" stroke-opacity="1" stroke-width="1" stroke-linecap="round" stroke-linejoin="round" stroke-dasharray="1,6" fill="#eee" fill-opacity="0.5" fill-rule="evenodd" d="M435 229L437 219L433 219L433 217L429 219L430 224L423 222L420 224L417 221L413 221L413 219L410 217L402 215L403 212L396 210L397 223L395 225L396 227L400 228L406 233L405 238L409 237L408 240L410 240L412 243L409 247L411 251L413 249L417 249L418 252L423 251L425 248L424 247L429 242L429 238L426 238L425 235L426 232L434 234L436 232L435 229z" id="余杭区"/><path class="leaflet-interactive" stroke="#333" stroke-opacity="1" stroke-width="1" stroke-linecap="round" stroke-linejoin="round" stroke-dasharray="1,6" fill="#eee" fill-opacity="0.5" fill-rule="evenodd" d="M423 250L418 253L417 249L413 249L408 253L408 255L403 261L396 260L392 256L390 256L385 249L383 249L380 253L375 254L373 256L375 257L372 260L377 261L379 263L378 267L381 268L383 272L387 272L390 275L390 277L394 277L395 282L407 282L410 286L414 286L411 291L413 294L418 296L421 294L424 295L427 292L427 288L433 288L434 285L431 282L431 278L433 277L432 275L436 268L435 264L437 260L428 260L424 256L424 250z" id="富阳区"/><path class="leaflet-interactive" stroke="#333" stroke-opacity="1" stroke-width="1" stroke-linecap="round" stroke-linejoin="round" stroke-dasharray="1,6" fill="#eee" fill-opacity="0.5" fill-rule="evenodd" d="M354 274L356 276L355 270L359 268L361 270L363 268L371 270L371 263L375 257L373 255L381 253L381 250L383 249L385 249L386 252L396 260L403 261L410 251L409 248L412 241L408 240L409 237L406 238L406 234L401 228L395 226L391 228L390 225L392 223L387 225L383 223L380 227L374 226L369 231L364 233L363 230L357 234L356 233L353 239L340 235L338 237L328 231L321 239L323 245L326 248L319 252L320 254L321 253L323 255L321 258L323 268L336 266L335 267L337 269L342 268L344 272L345 271L347 273L354 274z" id="临安区"/><path class="leaflet-interactive" stroke="#333" stroke-opacity="1" stroke-width="1" stroke-linecap="round" stroke-linejoin="round" stroke-dasharray="1,6" fill="#eee" fill-opacity="0.5" fill-rule="evenodd" d="M450 239L457 243L464 238L464 240L467 243L470 244L474 242L476 245L483 244L483 246L489 239L488 231L482 228L465 229L461 236L458 233L460 229L458 229L451 233L451 238z" id="钱塘区"/><path class="leaflet-interactive" stroke="#333" stroke-opacity="1" stroke-width="1" stroke-linecap="round" stroke-linejoin="round" stroke-dasharray="1,6" fill="#eee" fill-opacity="0.5" fill-rule="evenodd" d="M455 231L452 228L455 224L453 214L449 216L442 215L440 219L439 218L440 219L437 220L437 224L435 227L436 230L445 228L446 233L448 235L449 234L448 236L450 236L451 233L455 231z" id="临平区"/><path class="leaflet-interactive" stroke="#333" stroke-opacity="1" stroke-width="1" stroke-linecap="round" stroke-linejoin="round" stroke-dasharray="1,6" fill="#eee" fill-opacity="0.5" fill-rule="evenodd" d="M373 260L371 262L372 267L370 270L363 268L361 270L359 268L355 270L355 276L350 274L349 275L353 277L349 284L355 288L358 288L357 291L359 293L359 298L364 299L368 293L369 296L374 296L378 299L384 295L388 299L388 304L390 306L393 305L397 313L399 310L402 312L406 304L409 303L417 305L421 303L421 301L416 300L414 294L412 294L411 292L414 286L413 285L411 286L407 282L397 284L394 281L394 277L390 277L390 275L387 272L383 272L382 269L378 267L379 262L373 260z" id="桐庐县"/><path class="leaflet-interactive" stroke="#333" stroke-opacity="1" stroke-width="1" stroke-linecap="round" stroke-linejoin="round" stroke-dasharray="1,6" fill="#eee" fill-opacity="0.5" fill-rule="evenodd" d="M323 268L323 276L319 275L319 279L317 282L310 286L310 295L307 300L305 300L300 307L294 307L287 315L287 319L285 321L277 321L273 325L283 336L289 336L289 338L297 340L300 346L299 347L298 345L297 349L300 354L306 354L310 352L311 349L316 344L317 345L321 340L329 336L333 336L344 327L350 326L351 320L353 320L357 317L357 315L359 315L355 315L354 313L356 308L361 306L362 301L364 299L359 298L359 292L357 290L358 287L351 287L349 285L350 281L353 280L353 276L349 275L354 274L347 273L345 271L344 272L342 268L337 269L335 267L336 266L323 268z" id="淳安县"/><path class="leaflet-interactive" stroke="#333" stroke-opacity="1" stroke-width="1" stroke-linecap="round" stroke-linejoin="round" stroke-dasharray="1,6" fill="#eee" fill-opacity="0.5" fill-rule="evenodd" d="M402 312L400 310L398 310L397 312L394 305L391 306L389 304L388 299L384 295L378 299L375 296L368 296L368 293L365 296L361 306L359 306L355 310L354 313L356 315L359 315L357 315L357 317L351 320L349 327L343 327L342 330L338 331L337 334L329 336L324 339L329 343L328 344L332 348L331 349L333 352L344 349L344 351L352 351L350 347L351 344L353 344L355 348L357 348L359 344L362 345L364 341L364 334L362 332L367 329L370 332L373 330L374 337L376 337L376 339L378 339L382 335L388 335L391 329L397 329L398 321L401 320L398 317L402 316L402 312z" id="建德市"/><path class="leaflet-interactive" stroke="#333" stroke-opacity="1" stroke-width="1" stroke-linecap="round" stroke-linejoin="round" stroke-dasharray="1,6" fill="#eee" fill-opacity="0.5" fill-rule="evenodd" d="M532 297L551 297L554 295L554 293L556 293L555 292L556 293L559 290L560 291L566 283L560 277L558 279L555 276L554 277L550 275L547 280L543 278L539 280L530 290L530 292L529 291L527 293L529 295L528 296L530 296L530 298L532 297z" id="海曙区"/><path class="leaflet-interactive" stroke="#333" stroke-opacity="1" stroke-width="1" stroke-linecap="round" stroke-linejoin="round" stroke-dasharray="1,6" fill="#eee" fill-opacity="0.5" fill-rule="evenodd" d="M558 265L558 263L553 264L553 266L551 266L551 270L548 273L554 277L555 276L558 279L560 277L561 279L563 279L563 281L565 281L565 283L568 280L573 280L573 278L572 279L569 277L563 270L560 270L557 266L558 265z" id="江北区"/><path class="leaflet-interactive" stroke="#333" stroke-opacity="1" stroke-width="1" stroke-linecap="round" stroke-linejoin="round" stroke-dasharray="1,6" fill="#eee" fill-opacity="0.5" fill-rule="evenodd" d="M596 300L599 296L606 294L609 288L619 282L619 280L615 279L613 281L607 281L603 274L601 274L598 278L586 270L582 272L581 275L574 278L576 280L575 281L578 285L582 283L582 285L586 287L586 289L588 289L589 292L596 297L596 299zM609 290L609 290zM607 279L608 280L608 278L606 279zM609 290L609 289zM606 280L607 280zM620 280L620 280zM608 279L608 279z" id="北仑区"/><path class="leaflet-interactive" stroke="#333" stroke-opacity="1" stroke-width="1" stroke-linecap="round" stroke-linejoin="round" stroke-dasharray="1,6" fill="#eee" fill-opacity="0.5" fill-rule="evenodd" d="M572 262L569 265L562 263L557 266L559 270L563 270L568 276L572 279L573 278L573 280L586 270L581 270L578 268L575 262L573 262z" id="镇海区"/><path class="leaflet-interactive" stroke="#333" stroke-opacity="1" stroke-width="1" stroke-linecap="round" stroke-linejoin="round" stroke-dasharray="1,6" fill="#eee" fill-opacity="0.5" fill-rule="evenodd" d="M574 279L568 280L563 286L562 290L558 292L557 291L558 300L567 301L566 308L584 308L586 310L596 300L596 297L593 296L589 292L589 290L582 285L582 283L578 285L575 279z" id="鄞州区"/><path class="leaflet-interactive" stroke="#333" stroke-opacity="1" stroke-width="1" stroke-linecap="round" stroke-linejoin="round" stroke-dasharray="1,6" fill="#eee" fill-opacity="0.5" fill-rule="evenodd" d="M535 331L537 331L540 325L542 325L545 322L548 323L551 320L556 320L558 322L565 323L580 317L586 310L584 308L566 308L567 301L558 300L558 296L556 293L557 292L555 292L556 293L554 293L554 295L550 297L532 297L526 303L520 301L519 302L522 305L521 307L525 309L525 315L529 318L536 319L534 322L534 328L536 331z" id="奉化区"/><path class="leaflet-interactive" stroke="#333" stroke-opacity="1" stroke-width="1" stroke-linecap="round" stroke-linejoin="round" stroke-dasharray="1,6" fill="#eee" fill-opacity="0.5" fill-rule="evenodd" d="M591 306L578 318L571 320L573 321L567 324L567 326L570 328L571 327L576 332L579 331L581 333L580 336L583 339L583 345L589 345L585 355L585 362L589 362L592 365L595 363L601 369L604 365L603 364L605 362L605 358L600 354L603 353L603 348L606 346L604 344L600 344L602 339L600 335L605 328L603 321L605 316L604 315L606 313L602 307L593 307zM608 355L607 358L612 357L613 355L610 356L611 354L609 352L609 355zM627 388L628 389L627 388zM622 331L626 329L625 328L622 331zM587 365L590 369L591 364L586 364zM622 326L624 326L622 326zM608 309L608 311L608 309zM629 386L629 385zM604 350L605 350zM604 325L606 325L604 324zM604 322L606 322L603 321zM627 326L628 325zM606 308L607 308zM601 354L604 357L604 355L602 354zM624 327L624 327zM599 370L602 369L599 370zM606 349L606 351L607 349zM606 331L607 332L606 331zM604 350L604 349zM628 386L628 386zM604 339L603 338L604 339zM606 343L606 343zM603 332L603 331zM626 335L626 334zM606 338L607 339L606 338zM606 314L605 315L606 314zM606 315L606 315zM627 326L627 325zM629 327L629 327zM611 360L611 361zM622 332L622 332zM608 371L608 371zM626 326L626 326zM586 366L586 366zM629 386L629 386zM604 344L604 344zM608 344L608 344zM588 370L588 370zM611 352L612 351zM605 308L605 308zM610 346L609 347zM613 354L613 354zM613 321L614 321zM611 352L611 353zM599 306L599 305zM609 345L609 345zM609 363L609 363zM592 366L592 366zM607 369L607 369zM604 365L604 365zM624 333L625 333zM608 344L608 344z" id="象山县"/><path class="leaflet-interactive" stroke="#333" stroke-opacity="1" stroke-width="1" stroke-linecap="round" stroke-linejoin="round" stroke-dasharray="1,6" fill="#eee" fill-opacity="0.5" fill-rule="evenodd" d="M535 331L536 335L532 339L533 342L529 348L531 351L530 352L534 352L536 354L536 356L539 358L538 361L541 364L543 362L544 363L549 353L551 354L552 358L555 357L562 360L566 356L570 356L580 361L583 360L587 348L589 347L589 345L583 345L583 339L580 336L581 333L579 331L576 332L567 325L573 321L571 320L567 321L566 323L559 322L557 320L554 321L551 319L548 323L545 322L542 325L541 324L539 326L538 331L536 331z" id="宁海县"/><path class="leaflet-interactive" stroke="#333" stroke-opacity="1" stroke-width="1" stroke-linecap="round" stroke-linejoin="round" stroke-dasharray="1,6" fill="#eee" fill-opacity="0.5" fill-rule="evenodd" d="M518 232L518 234L503 241L508 252L508 257L514 263L513 266L523 271L516 281L524 287L524 290L521 294L517 294L518 296L516 296L516 298L518 298L515 301L516 302L514 302L515 304L517 304L520 301L526 303L532 297L531 296L530 298L530 296L528 296L529 295L527 293L529 291L530 292L530 290L539 280L543 278L547 280L549 278L550 275L548 273L551 271L551 267L553 265L551 263L552 262L534 262L530 257L536 253L534 251L525 252L524 244L520 244L523 241L520 234z" id="余姚市"/><path class="leaflet-interactive" stroke="#333" stroke-opacity="1" stroke-width="1" stroke-linecap="round" stroke-linejoin="round" stroke-dasharray="1,6" fill="#eee" fill-opacity="0.5" fill-rule="evenodd" d="M553 264L558 263L558 265L560 265L559 264L564 263L566 265L570 265L572 261L569 254L560 242L551 234L549 230L545 227L535 227L526 218L523 227L518 232L524 241L520 244L524 244L524 250L526 252L535 251L536 253L530 257L532 261L533 260L535 262L548 263L551 262L551 264L553 265z" id="慈溪市"/><path class="leaflet-interactive" stroke="#333" stroke-opacity="1" stroke-width="1" stroke-linecap="round" stroke-linejoin="round" stroke-dasharray="1,6" fill="#eee" fill-opacity="0.5" fill-rule="evenodd" d="M497 479L492 475L480 475L478 473L478 467L475 467L474 463L469 464L463 461L459 463L461 465L461 469L463 469L462 473L466 471L470 473L469 474L473 474L480 478L482 476L484 481L484 479L487 480L489 478L497 480z" id="鹿城区"/><path class="leaflet-interactive" stroke="#333" stroke-opacity="1" stroke-width="1" stroke-linecap="round" stroke-linejoin="round" stroke-dasharray="1,6" fill="#eee" fill-opacity="0.5" fill-rule="evenodd" d="M491 491L493 493L492 496L496 502L500 502L509 488L502 483L500 479L494 480L490 478L488 479L492 485L492 489L490 489L491 491z" id="龙湾区"/><path class="leaflet-interactive" stroke="#333" stroke-opacity="1" stroke-width="1" stroke-linecap="round" stroke-linejoin="round" stroke-dasharray="1,6" fill="#eee" fill-opacity="0.5" fill-rule="evenodd" d="M488 479L484 479L484 481L481 476L481 478L477 477L474 474L473 475L466 472L463 473L463 469L460 468L458 468L458 471L455 472L454 478L461 481L468 481L470 483L468 485L470 485L474 489L478 487L480 492L483 493L485 493L488 490L492 490L492 485L489 482L489 479z" id="瓯海区"/><path class="leaflet-interactive" stroke="#333" stroke-opacity="1" stroke-width="1" stroke-linecap="round" stroke-linejoin="round" stroke-dasharray="1,6" fill="#eee" fill-opacity="0.5" fill-rule="evenodd" d="M514 483L513 481L507 479L501 479L500 481L517 494L521 494L522 496L526 497L528 496L528 498L526 498L527 499L533 495L533 491L529 489L530 487L520 488zM525 486L526 487L525 486zM527 502L528 503L527 502zM527 501L527 501zM522 499L522 501L523 499zM528 502L529 503L528 502zM526 486L526 486zM535 496L535 496zM520 477L520 476zM535 484L535 484zM537 495L537 494zM524 484L529 481L527 479L521 479L518 482L523 484zM532 481L537 478L533 477L530 479L531 481zM539 477L539 476zM530 486L530 486zM523 498L523 497zM530 504L529 503zM534 497L534 496zM519 480L523 477L518 479zM529 503L529 503zM523 498L523 498zM515 494L515 494zM521 475L522 474L521 475zM519 475L518 475zM528 509L528 509zM539 477L539 477zM520 475L519 475zM535 494L535 494zM528 501L528 501zM526 505L526 505zM531 509L531 509zM535 494L535 494zM532 506L532 505zM530 487L530 487zM532 508L533 508zM526 510L527 510z" id="洞头区"/><path class="leaflet-interactive" stroke="#333" stroke-opacity="1" stroke-width="1" stroke-linecap="round" stroke-linejoin="round" stroke-dasharray="1,6" fill="#eee" fill-opacity="0.5" fill-rule="evenodd" d="M512 428L511 425L504 427L499 423L500 420L492 414L489 414L485 418L482 418L483 419L481 419L481 421L477 423L469 420L468 417L464 417L463 422L461 424L462 427L460 429L459 428L458 435L454 433L454 438L457 442L455 443L462 447L462 451L464 453L461 456L463 458L461 460L463 462L464 461L466 464L474 463L475 466L478 467L478 473L480 475L485 474L496 476L498 472L498 466L506 455L504 453L506 451L504 444L505 442L507 442L507 444L510 443L514 437L511 436L511 433L513 431L512 428z" id="永嘉县"/><path class="leaflet-interactive" stroke="#333" stroke-opacity="1" stroke-width="1" stroke-linecap="round" stroke-linejoin="round" stroke-dasharray="1,6" fill="#eee" fill-opacity="0.5" fill-rule="evenodd" d="M468 524L469 523L467 521L470 522L470 520L474 519L475 521L479 520L482 522L481 521L485 518L487 514L487 511L486 512L483 509L479 509L480 506L478 503L473 502L466 512L463 509L460 510L458 508L459 507L453 503L454 504L452 506L446 505L441 510L435 510L433 515L434 518L432 521L430 521L433 522L433 524L437 524L438 526L451 526L457 522L461 522L464 525L466 523L468 524zM520 535L521 535zM524 535L522 531L520 531L520 533L519 532L521 535L520 533L524 534zM489 523L489 523zM526 532L526 532zM520 530L520 531zM522 536L523 537L521 536zM525 532L524 531L526 533L525 532zM523 529L522 530L524 530z" id="平阳县"/><path class="leaflet-interactive" stroke="#333" stroke-opacity="1" stroke-width="1" stroke-linecap="round" stroke-linejoin="round" stroke-dasharray="1,6" fill="#eee" fill-opacity="0.5" fill-rule="evenodd" d="M431 522L430 525L436 527L439 530L439 532L440 531L445 533L448 536L447 538L449 540L453 538L454 540L456 540L456 546L458 546L458 548L463 554L460 555L460 559L465 565L471 566L476 557L476 555L474 554L476 551L476 547L482 545L485 542L485 537L488 531L485 528L483 532L477 532L478 530L476 526L472 526L470 528L471 529L468 530L466 528L468 524L466 523L465 525L462 522L457 522L451 526L439 526L431 522zM488 526L488 526zM499 576L500 575zM500 576L500 575zM501 575L501 574zM502 574L502 574zM501 573L501 573z" id="苍南县"/><path class="leaflet-interactive" stroke="#333" stroke-opacity="1" stroke-width="1" stroke-linecap="round" stroke-linejoin="round" stroke-dasharray="1,6" fill="#eee" fill-opacity="0.5" fill-rule="evenodd" d="M445 484L441 483L439 479L433 479L431 481L430 480L430 482L426 484L420 484L420 480L416 482L412 480L411 483L410 481L409 482L410 484L408 487L406 485L404 487L404 499L405 500L406 497L409 498L408 502L413 507L412 508L414 511L417 509L423 509L423 515L426 518L425 519L431 522L430 521L434 519L434 512L436 510L440 510L447 505L440 498L442 493L441 492L445 486L444 485z" id="文成县"/><path class="leaflet-interactive" stroke="#333" stroke-opacity="1" stroke-width="1" stroke-linecap="round" stroke-linejoin="round" stroke-dasharray="1,6" fill="#eee" fill-opacity="0.5" fill-rule="evenodd" d="M404 498L403 499L403 497L400 501L395 503L394 506L392 506L392 510L390 512L392 514L390 516L390 520L393 521L393 525L397 527L397 533L395 536L397 536L404 549L405 548L407 550L410 549L410 547L412 549L419 548L418 547L421 542L424 541L424 543L429 545L434 539L436 539L436 537L443 537L446 535L441 531L439 532L439 530L436 527L430 525L430 523L425 519L426 518L423 515L423 509L417 509L415 511L413 510L413 506L408 502L409 498L406 497L405 500L404 499z" id="泰顺县"/><path class="leaflet-interactive" stroke="#333" stroke-opacity="1" stroke-width="1" stroke-linecap="round" stroke-linejoin="round" stroke-dasharray="1,6" fill="#eee" fill-opacity="0.5" fill-rule="evenodd" d="M488 511L494 505L494 501L496 502L495 498L492 496L493 493L489 491L490 490L488 490L485 493L480 493L480 489L474 489L470 485L468 485L470 483L465 480L461 481L455 479L446 482L446 484L444 485L444 489L441 492L442 495L440 497L447 505L452 507L452 505L454 504L453 503L456 506L458 506L460 510L463 509L466 512L469 506L471 506L470 505L473 502L475 502L480 505L480 509L485 510L486 512zM512 513L513 514L514 512L513 511L512 513zM533 516L532 517L534 517L535 515L533 516zM506 509L507 508L506 509zM534 517L535 517zM520 515L520 515zM530 515L531 515zM499 510L500 511L499 510zM509 515L509 514zM499 514L498 515L499 513zM533 518L534 517zM509 512L510 513L509 512zM509 514L509 514zM505 507L504 508L506 507zM500 511L501 512L500 511zM507 510L508 509L507 510zM508 513L509 513zM532 513L532 513zM527 516L527 516zM507 510L508 510zM497 509L498 509zM533 512L532 512z" id="瑞安市"/><path class="leaflet-interactive" stroke="#333" stroke-opacity="1" stroke-width="1" stroke-linecap="round" stroke-linejoin="round" stroke-dasharray="1,6" fill="#eee" fill-opacity="0.5" fill-rule="evenodd" d="M495 476L498 480L507 479L513 481L514 483L520 467L527 461L528 450L531 449L534 444L533 439L535 439L538 436L528 423L527 424L526 422L524 422L522 428L515 429L512 427L513 432L511 436L514 437L510 443L504 443L506 448L506 452L504 452L504 454L506 455L498 466L498 471L495 476z" id="乐清市"/><path class="leaflet-interactive" stroke="#333" stroke-opacity="1" stroke-width="1" stroke-linecap="round" stroke-linejoin="round" stroke-dasharray="1,6" fill="#eee" fill-opacity="0.5" fill-rule="evenodd" d="M486 528L479 520L470 520L470 522L467 521L469 523L466 528L468 530L471 529L470 528L472 526L476 526L478 530L477 531L482 532L485 528zM488 527L488 527z" id="龙港市"/><path class="leaflet-interactive" stroke="#333" stroke-opacity="1" stroke-width="1" stroke-linecap="round" stroke-linejoin="round" stroke-dasharray="1,6" fill="#eee" fill-opacity="0.5" fill-rule="evenodd" d="M494 203L496 206L497 202L501 205L509 205L511 203L510 196L513 195L513 190L511 189L511 187L508 189L508 187L507 188L505 186L501 186L503 182L501 180L496 185L497 186L490 187L490 189L484 193L489 196L491 196L491 194L494 195L492 203L494 203z" id="南湖区"/><path class="leaflet-interactive" stroke="#333" stroke-opacity="1" stroke-width="1" stroke-linecap="round" stroke-linejoin="round" stroke-dasharray="1,6" fill="#eee" fill-opacity="0.5" fill-rule="evenodd" d="M499 182L496 181L496 175L494 175L493 172L495 170L493 168L488 167L486 169L489 172L488 178L486 176L483 179L478 179L472 185L475 186L475 191L478 195L482 197L481 202L479 204L480 207L489 208L494 203L492 203L494 195L491 194L491 196L486 196L484 192L490 190L492 186L497 186L496 185L498 182z" id="秀洲区"/><path class="leaflet-interactive" stroke="#333" stroke-opacity="1" stroke-width="1" stroke-linecap="round" stroke-linejoin="round" stroke-dasharray="1,6" fill="#eee" fill-opacity="0.5" fill-rule="evenodd" d="M499 182L501 180L503 182L501 186L505 186L507 188L508 187L508 189L511 187L517 187L518 183L516 181L514 183L517 176L514 175L514 162L510 160L509 163L506 162L503 165L497 163L492 167L495 170L493 172L494 175L496 175L496 181L499 182z" id="嘉善县"/><path class="leaflet-interactive" stroke="#333" stroke-opacity="1" stroke-width="1" stroke-linecap="round" stroke-linejoin="round" stroke-dasharray="1,6" fill="#eee" fill-opacity="0.5" fill-rule="evenodd" d="M511 203L509 205L501 205L497 203L496 206L492 204L490 207L492 211L491 214L496 217L496 221L499 226L498 229L500 231L500 235L503 241L517 234L523 227L526 218L518 208L518 202L516 204L512 202L511 203z" id="海盐县"/><path class="leaflet-interactive" stroke="#333" stroke-opacity="1" stroke-width="1" stroke-linecap="round" stroke-linejoin="round" stroke-dasharray="1,6" fill="#eee" fill-opacity="0.5" fill-rule="evenodd" d="M455 220L455 224L452 227L453 230L460 229L458 232L461 235L465 229L481 228L486 229L488 231L488 238L490 240L496 242L503 241L500 236L500 231L498 229L499 226L496 221L496 217L491 214L492 211L489 208L484 207L484 213L477 214L475 218L472 219L470 217L463 216L463 218L459 217L455 220z" id="海宁市"/><path class="leaflet-interactive" stroke="#333" stroke-opacity="1" stroke-width="1" stroke-linecap="round" stroke-linejoin="round" stroke-dasharray="1,6" fill="#eee" fill-opacity="0.5" fill-rule="evenodd" d="M511 187L513 195L510 196L510 202L516 204L518 202L518 208L521 212L520 210L528 206L530 203L535 202L538 198L540 198L539 192L535 188L535 186L533 186L533 188L525 186L527 183L525 179L520 180L516 187L511 187zM528 206L528 206zM526 207L526 207zM526 208L526 208zM542 216L543 216zM545 217L545 216zM543 219L543 219z" id="平湖市"/><path class="leaflet-interactive" stroke="#333" stroke-opacity="1" stroke-width="1" stroke-linecap="round" stroke-linejoin="round" stroke-dasharray="1,6" fill="#eee" fill-opacity="0.5" fill-rule="evenodd" d="M472 185L470 189L466 189L468 193L464 195L465 197L459 198L457 200L456 199L454 204L451 205L453 208L451 210L451 214L453 214L453 218L455 220L458 219L458 217L463 218L463 216L467 216L472 219L475 218L477 214L484 213L484 209L479 206L482 197L478 195L475 191L475 187L473 186z" id="桐乡市"/><path class="leaflet-interactive" stroke="#333" stroke-opacity="1" stroke-width="1" stroke-linecap="round" stroke-linejoin="round" stroke-dasharray="1,6" fill="#eee" fill-opacity="0.5" fill-rule="evenodd" d="M433 168L431 170L424 171L425 172L422 171L419 176L419 190L411 196L413 200L416 200L415 205L418 203L424 205L425 202L426 203L431 200L433 202L437 200L438 201L439 200L437 196L430 194L434 186L436 184L442 185L444 181L450 181L453 179L453 177L455 177L457 171L457 169L453 171L439 171L433 168z" id="吴兴区"/><path class="leaflet-interactive" stroke="#333" stroke-opacity="1" stroke-width="1" stroke-linecap="round" stroke-linejoin="round" stroke-dasharray="1,6" fill="#eee" fill-opacity="0.5" fill-rule="evenodd" d="M455 201L455 199L458 200L459 198L463 198L464 195L468 193L466 189L468 189L467 185L465 183L466 182L462 171L460 175L456 175L455 178L454 177L454 179L451 181L445 181L443 185L436 183L430 194L435 195L438 198L437 199L444 198L443 201L447 203L449 203L447 201L449 201L452 198L451 201L455 201z" id="南浔区"/><path class="leaflet-interactive" stroke="#333" stroke-opacity="1" stroke-width="1" stroke-linecap="round" stroke-linejoin="round" stroke-dasharray="1,6" fill="#eee" fill-opacity="0.5" fill-rule="evenodd" d="M403 212L402 215L407 215L409 217L410 216L412 221L419 222L420 224L422 222L429 224L429 220L431 217L433 217L433 219L437 218L437 220L440 219L439 217L444 215L449 216L453 208L451 206L454 205L455 201L452 202L452 198L449 201L447 201L449 203L447 203L443 201L444 198L440 198L439 201L436 200L432 202L432 200L430 200L424 204L419 203L416 205L416 200L409 196L408 202L407 201L405 205L406 211L403 211z" id="德清县"/><path class="leaflet-interactive" stroke="#333" stroke-opacity="1" stroke-width="1" stroke-linecap="round" stroke-linejoin="round" stroke-dasharray="1,6" fill="#eee" fill-opacity="0.5" fill-rule="evenodd" d="M433 168L429 163L423 160L416 146L413 147L409 145L407 148L404 147L404 145L400 145L397 147L394 146L389 151L392 153L390 154L390 162L385 167L386 171L383 174L383 176L385 179L400 178L404 180L406 178L408 180L405 181L405 185L408 186L411 191L413 191L413 193L416 193L419 190L419 176L421 172L425 172L424 171L428 171L433 168z" id="长兴县"/><path class="leaflet-interactive" stroke="#333" stroke-opacity="1" stroke-width="1" stroke-linecap="round" stroke-linejoin="round" stroke-dasharray="1,6" fill="#eee" fill-opacity="0.5" fill-rule="evenodd" d="M385 179L381 187L376 188L377 195L373 201L369 200L368 197L365 198L361 204L354 205L357 208L354 211L354 213L356 213L356 215L358 216L362 213L363 214L363 222L365 224L364 225L366 229L371 230L374 226L379 227L383 223L385 223L385 225L391 223L390 227L394 227L397 224L396 211L405 211L405 204L407 201L408 202L409 197L411 197L414 193L405 184L405 182L408 181L407 178L403 180L400 178L385 179z" id="安吉县"/><path class="leaflet-interactive" stroke="#333" stroke-opacity="1" stroke-width="1" stroke-linecap="round" stroke-linejoin="round" stroke-dasharray="1,6" fill="#eee" fill-opacity="0.5" fill-rule="evenodd" d="M492 245L482 256L479 257L477 255L476 259L473 258L471 260L471 265L469 267L473 270L474 273L472 280L473 279L474 281L477 282L479 280L479 276L483 274L487 278L489 283L492 283L492 279L494 279L495 268L493 268L490 265L490 261L494 259L496 261L497 256L501 254L496 254L495 247L492 246z" id="越城区"/><path class="leaflet-interactive" stroke="#333" stroke-opacity="1" stroke-width="1" stroke-linecap="round" stroke-linejoin="round" stroke-dasharray="1,6" fill="#eee" fill-opacity="0.5" fill-rule="evenodd" d="M457 272L458 271L460 275L470 285L472 285L469 291L473 301L480 296L484 296L486 301L490 299L489 296L492 294L492 282L488 282L486 276L483 275L484 274L479 275L478 281L474 282L472 279L474 274L473 270L469 267L471 265L470 264L472 258L475 259L477 256L479 257L483 255L488 248L495 242L490 239L477 254L467 251L463 255L459 253L457 253L454 256L452 255L450 259L452 258L454 260L453 265L455 265L457 271z" id="柯桥区"/><path class="leaflet-interactive" stroke="#333" stroke-opacity="1" stroke-width="1" stroke-linecap="round" stroke-linejoin="round" stroke-dasharray="1,6" fill="#eee" fill-opacity="0.5" fill-rule="evenodd" d="M491 283L491 291L499 287L502 294L501 295L505 295L507 297L518 296L517 294L521 294L524 289L524 287L516 281L518 279L517 278L519 274L523 271L521 269L516 268L513 265L514 264L512 260L510 260L508 257L508 252L503 241L495 242L492 245L495 246L495 253L501 254L497 256L496 261L494 259L490 261L490 265L493 268L495 268L492 283z" id="上虞区"/><path class="leaflet-interactive" stroke="#333" stroke-opacity="1" stroke-width="1" stroke-linecap="round" stroke-linejoin="round" stroke-dasharray="1,6" fill="#eee" fill-opacity="0.5" fill-rule="evenodd" d="M488 338L488 342L494 342L494 350L498 350L502 347L506 349L505 345L507 342L511 344L511 342L516 340L518 342L520 340L526 342L525 340L529 338L533 340L532 339L536 336L534 330L534 322L536 320L534 318L525 316L523 320L517 320L515 316L506 316L506 318L502 318L495 322L495 327L493 327L488 337z" id="新昌县"/><path class="leaflet-interactive" stroke="#333" stroke-opacity="1" stroke-width="1" stroke-linecap="round" stroke-linejoin="round" stroke-dasharray="1,6" fill="#eee" fill-opacity="0.5" fill-rule="evenodd" d="M466 322L471 318L469 312L471 310L470 306L473 299L470 296L469 291L473 285L468 283L464 277L460 275L458 271L455 272L455 274L452 277L451 276L449 278L444 275L441 279L438 279L432 289L430 287L426 289L427 292L424 295L421 294L417 296L414 294L416 301L419 300L425 306L427 304L426 307L428 309L425 310L424 314L427 314L429 316L428 317L432 318L432 322L443 317L443 319L449 323L447 325L449 328L447 333L450 337L455 331L458 330L458 326L461 327L462 324L466 323z" id="诸暨市"/><path class="leaflet-interactive" stroke="#333" stroke-opacity="1" stroke-width="1" stroke-linecap="round" stroke-linejoin="round" stroke-dasharray="1,6" fill="#eee" fill-opacity="0.5" fill-rule="evenodd" d="M516 297L506 297L505 295L502 296L500 288L497 287L493 289L489 297L489 300L487 301L482 296L473 300L470 306L471 311L469 313L471 318L467 320L467 322L471 326L470 330L475 334L474 335L478 339L485 340L491 334L492 329L496 323L494 322L498 321L501 318L514 316L517 317L518 320L524 319L525 310L521 307L522 306L520 302L517 304L514 303L516 301L515 300L518 299L516 298z" id="嵊州市"/><path class="leaflet-interactive" stroke="#333" stroke-opacity="1" stroke-width="1" stroke-linecap="round" stroke-linejoin="round" stroke-dasharray="1,6" fill="#eee" fill-opacity="0.5" fill-rule="evenodd" d="M362 365L363 372L363 370L362 377L360 377L364 384L364 386L361 389L364 392L362 394L363 399L365 399L366 396L368 396L370 400L375 398L377 402L379 398L384 394L383 391L389 387L390 388L392 383L398 381L400 376L403 375L400 374L400 370L398 368L396 370L394 369L394 358L392 353L396 351L396 349L391 351L387 350L383 360L378 360L376 364L373 361L373 359L369 359L362 364z" id="婺城区"/><path class="leaflet-interactive" stroke="#333" stroke-opacity="1" stroke-width="1" stroke-linecap="round" stroke-linejoin="round" stroke-dasharray="1,6" fill="#eee" fill-opacity="0.5" fill-rule="evenodd" d="M407 342L395 351L393 351L392 353L394 357L394 369L400 369L399 374L402 375L404 373L408 373L413 368L414 369L416 367L416 363L419 361L417 353L416 354L415 351L416 348L409 343z" id="金东区"/><path class="leaflet-interactive" stroke="#333" stroke-opacity="1" stroke-width="1" stroke-linecap="round" stroke-linejoin="round" stroke-dasharray="1,6" fill="#eee" fill-opacity="0.5" fill-rule="evenodd" d="M376 401L374 410L379 414L378 421L381 420L385 423L391 423L391 421L396 423L399 418L403 416L403 414L401 413L402 411L405 412L407 410L407 406L410 403L412 403L412 401L418 394L421 393L421 389L415 380L418 377L416 374L414 374L416 370L414 368L411 371L410 370L409 373L405 373L399 377L397 381L392 383L390 388L389 387L383 391L384 394L380 396L377 401z" id="武义县"/><path class="leaflet-interactive" stroke="#333" stroke-opacity="1" stroke-width="1" stroke-linecap="round" stroke-linejoin="round" stroke-dasharray="1,6" fill="#eee" fill-opacity="0.5" fill-rule="evenodd" d="M398 326L401 329L400 330L403 332L406 333L409 330L412 332L413 331L415 335L415 333L417 335L418 334L421 336L421 338L422 335L424 335L434 322L431 321L432 318L430 318L427 314L424 314L425 309L428 308L426 304L426 306L423 306L421 303L416 305L409 303L404 306L402 316L399 317L400 320L397 326z" id="浦江县"/><path class="leaflet-interactive" stroke="#333" stroke-opacity="1" stroke-width="1" stroke-linecap="round" stroke-linejoin="round" stroke-dasharray="1,6" fill="#eee" fill-opacity="0.5" fill-rule="evenodd" d="M452 381L452 387L454 387L457 391L461 389L467 392L471 385L472 388L476 388L479 385L481 385L484 382L485 377L490 376L490 371L487 370L487 365L490 361L492 361L489 360L489 358L494 353L494 342L491 341L488 347L486 347L485 345L483 346L472 358L469 357L467 359L469 361L469 367L466 364L462 366L460 371L461 372L457 375L457 377L455 377L452 380z" id="磐安县"/><path class="leaflet-interactive" stroke="#333" stroke-opacity="1" stroke-width="1" stroke-linecap="round" stroke-linejoin="round" stroke-dasharray="1,6" fill="#eee" fill-opacity="0.5" fill-rule="evenodd" d="M362 365L369 359L373 359L373 361L376 364L379 360L382 360L384 358L387 350L390 351L401 347L404 343L414 336L414 332L403 332L398 326L395 330L390 330L388 335L382 335L380 336L379 339L377 339L374 336L374 332L372 330L371 332L369 332L368 329L365 330L363 332L364 341L362 342L363 343L361 345L359 344L359 346L354 351L353 354L355 354L355 359L360 363L360 365L362 365z" id="兰溪市"/><path class="leaflet-interactive" stroke="#333" stroke-opacity="1" stroke-width="1" stroke-linecap="round" stroke-linejoin="round" stroke-dasharray="1,6" fill="#eee" fill-opacity="0.5" fill-rule="evenodd" d="M414 369L420 368L422 370L428 367L430 363L431 364L432 356L439 347L437 345L438 343L445 338L446 333L449 330L447 326L449 323L446 322L446 320L445 321L443 317L441 317L432 324L421 338L419 334L417 335L415 333L415 335L407 341L416 348L415 351L416 354L417 353L419 361L416 362L415 368z" id="义乌市"/><path class="leaflet-interactive" stroke="#333" stroke-opacity="1" stroke-width="1" stroke-linecap="round" stroke-linejoin="round" stroke-dasharray="1,6" fill="#eee" fill-opacity="0.5" fill-rule="evenodd" d="M431 364L440 364L438 366L439 367L445 367L446 370L452 373L454 377L458 377L458 375L461 372L460 371L462 366L466 364L469 367L469 361L467 359L469 357L472 358L479 351L478 350L484 345L487 347L491 343L487 341L488 338L486 338L485 340L479 339L477 337L476 338L476 336L474 336L475 334L470 330L471 325L469 325L467 322L462 324L461 327L458 327L458 330L455 331L450 337L447 333L448 332L446 332L445 338L437 344L439 348L433 353L431 364z" id="东阳市"/><path class="leaflet-interactive" stroke="#333" stroke-opacity="1" stroke-width="1" stroke-linecap="round" stroke-linejoin="round" stroke-dasharray="1,6" fill="#eee" fill-opacity="0.5" fill-rule="evenodd" d="M431 364L430 363L428 367L423 368L422 370L418 367L415 369L416 370L414 372L414 374L418 376L417 379L415 379L417 382L416 383L421 388L421 392L420 394L418 394L419 396L422 395L426 399L431 396L434 399L442 396L443 392L448 387L448 383L446 383L447 380L448 379L452 381L452 379L455 377L453 377L453 373L446 371L446 369L444 367L440 367L439 364L431 364z" id="永康市"/><path class="leaflet-interactive" stroke="#333" stroke-opacity="1" stroke-width="1" stroke-linecap="round" stroke-linejoin="round" stroke-dasharray="1,6" fill="#eee" fill-opacity="0.5" fill-rule="evenodd" d="M311 354L306 364L304 372L305 377L308 380L308 382L305 385L310 391L317 382L318 387L323 392L328 391L328 382L326 382L326 380L324 379L326 376L322 376L322 372L324 371L322 371L323 368L319 364L317 355L313 355z" id="柯城区"/><path class="leaflet-interactive" stroke="#333" stroke-opacity="1" stroke-width="1" stroke-linecap="round" stroke-linejoin="round" stroke-dasharray="1,6" fill="#eee" fill-opacity="0.5" fill-rule="evenodd" d="M309 391L309 394L313 399L314 410L316 410L314 421L318 421L321 424L325 420L324 417L326 411L330 411L332 407L335 404L337 404L337 402L340 399L339 394L342 392L343 387L343 381L339 377L339 375L342 374L338 370L336 370L336 368L337 369L336 368L338 368L337 367L341 365L340 358L337 355L336 351L334 352L331 350L332 348L328 344L329 343L324 339L321 340L317 345L316 344L311 349L310 352L313 355L317 355L319 364L323 367L322 371L324 371L322 372L322 376L326 376L323 379L326 379L326 381L329 384L327 385L328 391L323 392L318 386L318 382L309 391z" id="衢江区"/><path class="leaflet-interactive" stroke="#333" stroke-opacity="1" stroke-width="1" stroke-linecap="round" stroke-linejoin="round" stroke-dasharray="1,6" fill="#eee" fill-opacity="0.5" fill-rule="evenodd" d="M277 397L279 395L283 397L284 396L284 398L286 396L287 391L290 392L298 389L298 387L301 388L308 382L304 372L306 364L311 356L311 351L306 354L298 354L298 356L294 360L295 361L285 371L283 370L280 377L277 376L274 378L273 381L265 382L269 391L271 393L275 393L276 397z" id="常山县"/><path class="leaflet-interactive" stroke="#333" stroke-opacity="1" stroke-width="1" stroke-linecap="round" stroke-linejoin="round" stroke-dasharray="1,6" fill="#eee" fill-opacity="0.5" fill-rule="evenodd" d="M299 354L297 350L297 345L299 346L298 342L295 339L291 339L288 336L282 335L279 332L279 330L277 330L272 324L272 322L270 322L270 330L263 329L259 333L261 337L257 341L258 342L256 344L249 344L248 351L245 352L244 356L246 358L245 363L249 367L248 370L250 373L252 373L252 375L253 372L255 376L259 376L262 380L259 383L260 384L265 381L274 381L276 376L280 376L283 370L284 371L295 361L294 360L298 356L298 354z" id="开化县"/><path class="leaflet-interactive" stroke="#333" stroke-opacity="1" stroke-width="1" stroke-linecap="round" stroke-linejoin="round" stroke-dasharray="1,6" fill="#eee" fill-opacity="0.5" fill-rule="evenodd" d="M338 402L346 401L349 400L350 398L355 399L359 394L362 395L364 393L364 391L361 390L361 388L363 388L364 385L360 378L363 375L363 366L360 365L360 363L355 357L354 352L356 349L353 344L351 344L350 347L352 351L344 351L345 349L337 351L337 355L341 363L339 366L338 365L338 367L337 366L338 367L336 369L338 369L339 372L342 374L339 375L339 377L343 381L342 392L339 395L340 398L338 401z" id="龙游县"/><path class="leaflet-interactive" stroke="#333" stroke-opacity="1" stroke-width="1" stroke-linecap="round" stroke-linejoin="round" stroke-dasharray="1,6" fill="#eee" fill-opacity="0.5" fill-rule="evenodd" d="M277 397L277 405L281 407L281 414L279 414L279 420L282 425L279 426L285 428L283 435L281 436L284 439L284 444L286 444L281 448L281 450L283 451L282 452L286 453L288 451L287 450L291 448L295 448L296 451L304 449L305 444L309 441L311 435L307 435L307 426L310 423L312 424L314 422L316 413L313 407L313 398L312 399L309 390L304 385L302 388L298 388L297 390L289 392L288 391L284 398L284 396L283 397L279 395L277 397z" id="江山市"/><path class="leaflet-interactive" stroke="#333" stroke-opacity="1" stroke-width="1" stroke-linecap="round" stroke-linejoin="round" stroke-dasharray="1,6" fill="#eee" fill-opacity="0.5" fill-rule="evenodd" d="M629 262L631 258L629 259L619 257L616 253L610 254L602 250L600 252L605 260L604 263L609 270L615 269L617 271L621 270L627 273L629 263zM612 250L608 248L608 252L611 251zM595 260L593 259L591 264L591 271L593 273L600 269L599 263L597 263L595 260zM590 262L592 262L590 260L590 262zM600 257L598 259L600 263L602 261L601 257zM596 247L596 247zM593 257L594 257zM621 273L624 274L621 270L620 272zM613 247L614 248L613 247zM619 273L618 274L621 275L621 273L619 273zM601 249L600 249zM604 259L603 260L604 259zM604 262L605 261L603 261L604 262zM612 270L612 272L614 271L613 269L612 270zM619 273L617 273L619 273zM614 271L615 272L614 271zM611 275L611 275zM619 256L620 257L619 256zM619 271L619 271zM613 274L612 273L613 274zM613 244L614 244zM618 271L619 271zM614 275L613 274L613 276L615 275zM591 259L591 259zM591 264L591 264zM616 273L617 274L616 271L616 273zM611 243L611 243zM603 263L602 264L603 263zM608 274L610 277L611 274L609 273zM616 274L617 274zM613 274L613 273zM614 270L615 270zM614 272L615 273L614 272zM620 272L620 272zM619 271L620 271zM615 269L616 270L615 269zM613 272L613 272zM612 274L612 275zM616 271L615 272L616 271zM612 272L612 272zM618 272L618 271zM622 271L623 272L622 271zM618 272L619 272zM619 271L619 271zM609 248L609 248zM610 271L611 272L611 270L610 271zM624 272L625 273L623 272z" id="定海区"/><path class="leaflet-interactive" stroke="#333" stroke-opacity="1" stroke-width="1" stroke-linecap="round" stroke-linejoin="round" stroke-dasharray="1,6" fill="#eee" fill-opacity="0.5" fill-rule="evenodd" d="M625 300L628 303L631 302L629 302L626 299L624 300zM636 276L635 277L639 281L640 280L639 284L641 287L643 287L644 286L642 284L645 281L645 279L643 278L645 278L644 275L643 274L641 276L637 274zM630 286L626 286L632 293L633 292L635 294L636 293L633 288L635 288L631 286zM629 262L627 273L631 276L635 276L637 268L631 262L629 263zM625 307L626 307zM670 249L671 250L670 248zM645 266L646 267L644 266zM623 289L624 290L624 288L623 289zM664 248L665 249L664 247zM622 306L625 302L624 299L619 296L618 291L613 292L610 299L612 301L615 299L618 302L618 304L622 306zM627 303L628 304L627 303zM639 286L638 287L640 287L639 286zM627 305L627 305zM648 275L648 277L648 275zM620 309L619 310L620 309zM641 272L642 269L644 269L642 267L643 266L640 268L639 271L641 272zM635 287L635 287zM609 295L607 295L607 299L610 296L609 295zM671 251L672 250L671 251zM668 249L669 250L668 247L668 249zM626 289L627 289zM626 306L627 306zM626 297L628 298L626 296zM624 298L626 298L624 298zM632 298L634 298L634 296L629 295L630 294L628 292L625 293L628 297L632 298zM619 308L619 308zM631 261L633 261L633 259L631 258zM675 255L677 255L675 255zM623 292L624 291L622 292zM647 272L646 273L647 272zM635 264L635 264zM621 311L621 310zM642 265L642 265zM609 294L609 294zM631 284L634 285L638 282L633 281L631 283zM625 287L625 287zM641 291L641 291zM616 303L616 303zM628 284L628 284zM621 290L622 291L622 289L620 290zM610 295L610 295zM647 274L646 275L647 274zM644 283L645 283zM620 290L620 290zM644 265L644 265zM626 299L627 299zM644 264L644 265zM648 275L648 275zM634 260L634 259zM629 283L631 283L628 282L629 283zM635 292L635 292zM649 277L649 277zM623 294L624 294zM624 272L625 274L631 276L628 273L624 272zM607 299L607 300zM640 274L640 274zM650 263L650 263zM632 277L634 277L634 275L632 276zM636 260L636 260zM609 294L609 294zM625 302L626 302zM644 275L644 275zM640 273L640 274zM633 280L634 280z" id="普陀区"/><path class="leaflet-interactive" stroke="#333" stroke-opacity="1" stroke-width="1" stroke-linecap="round" stroke-linejoin="round" stroke-dasharray="1,6" fill="#eee" fill-opacity="0.5" fill-rule="evenodd" d="M619 249L619 253L621 255L623 253L622 252L625 251L624 250L626 249L620 249zM621 235L618 235L614 238L610 238L618 243L627 245L626 239L628 237L626 236L626 234L623 235L621 232L622 234zM635 243L631 244L636 245L639 244L639 242L642 245L644 243L642 241L636 241L635 243zM645 226L645 222L641 222L640 219L631 219L631 225L644 226zM635 215L636 215zM647 224L649 226L650 225L648 224zM649 245L651 247L652 246L649 245zM633 217L634 218L634 216zM654 246L653 246zM630 246L630 245zM638 206L639 207L638 206zM622 245L622 247L624 247L624 245L622 245zM625 246L628 246L625 246zM646 243L646 243zM635 245L636 245zM657 246L657 246zM614 235L615 236L614 235zM638 240L639 240zM641 206L641 206zM650 226L650 226zM602 239L606 237L604 234L605 233L600 234L598 237L602 239zM648 244L648 244zM625 250L625 250zM659 248L660 248zM620 245L620 244zM617 246L620 247L618 246zM654 224L654 224zM651 226L652 227L651 226zM617 234L617 234zM569 243L569 243zM629 214L631 214L629 214zM658 247L658 248zM648 226L649 226zM580 244L580 243zM639 218L640 218zM621 255L621 255zM617 252L618 251L617 252zM636 206L635 207L637 207L636 206zM630 241L630 245L635 242L632 241zM643 218L644 218zM574 242L574 242zM630 224L631 223zM657 246L658 246zM631 219L631 219zM660 247L660 247zM570 240L570 240zM609 240L609 239zM691 223L691 223zM653 223L652 224L653 223zM651 243L650 243zM570 243L570 243zM652 223L652 223zM568 240L568 240zM596 234L597 233zM598 235L599 235zM647 223L647 223zM641 245L641 245zM647 223L647 223zM691 224L691 224zM692 223L692 223zM619 244L619 244z" id="岱山县"/><path class="leaflet-interactive" stroke="#333" stroke-opacity="1" stroke-width="1" stroke-linecap="round" stroke-linejoin="round" stroke-dasharray="1,6" fill="#eee" fill-opacity="0.5" fill-rule="evenodd" d="M663 183L661 183L663 183zM645 191L646 196L655 195L655 193L650 194L647 191L644 191zM667 180L669 180L667 179zM677 186L676 187L678 187L677 186zM666 184L666 184zM672 186L672 186zM603 186L601 187L601 189L602 195L605 200L614 206L618 206L609 199L607 199L605 196L605 190zM648 191L647 190L648 191zM613 206L611 208L612 209L614 207L615 208L613 206zM673 184L673 184zM667 186L666 186zM647 203L648 203zM658 201L657 200L659 200L657 198L655 200L657 201zM644 204L645 205L644 204zM676 185L675 186L676 185zM666 186L667 185L666 186zM653 202L652 201L653 202zM619 205L618 205zM654 199L655 200L653 199zM664 188L665 188zM644 197L644 199L644 197zM571 206L571 205zM620 208L620 208zM675 185L674 185zM649 198L650 198zM641 189L642 189zM674 184L674 184zM665 184L666 183L664 183zM677 196L677 192L675 194L677 196zM618 208L617 207zM580 209L580 209zM618 210L618 210zM674 195L674 194zM641 191L641 189L641 191zM645 197L645 197zM649 190L649 190zM632 202L633 201L631 202zM682 196L681 192L679 193L682 196zM669 181L669 181zM647 189L646 188zM645 196L645 196zM567 208L567 208zM568 207L568 206zM568 209L568 209zM678 196L678 196z" id="嵊泗县"/><path class="leaflet-interactive" stroke="#333" stroke-opacity="1" stroke-width="1" stroke-linecap="round" stroke-linejoin="round" stroke-dasharray="1,6" fill="#eee" fill-opacity="0.5" fill-rule="evenodd" d="M568 408L565 408L563 406L564 405L560 402L550 397L549 400L546 401L548 409L546 411L548 414L547 415L551 416L552 418L568 417L564 410zM596 429L598 427L596 425L594 429zM594 434L598 432L595 431L594 433zM592 434L592 433zM593 414L594 414zM598 430L599 431L598 430zM589 414L588 415L590 415L589 414zM599 422L599 422zM598 437L598 436zM589 415L588 416L589 415zM596 435L596 435zM597 437L597 436zM600 432L600 431zM598 435L598 435z" id="椒江区"/><path class="leaflet-interactive" stroke="#333" stroke-opacity="1" stroke-width="1" stroke-linecap="round" stroke-linejoin="round" stroke-dasharray="1,6" fill="#eee" fill-opacity="0.5" fill-rule="evenodd" d="M496 417L500 420L499 423L504 427L510 425L512 428L517 429L522 428L524 422L530 425L538 425L540 423L544 423L541 412L543 413L548 409L546 405L544 407L541 404L538 406L535 403L530 403L527 406L526 405L519 409L508 403L506 405L507 407L505 409L504 408L507 412L503 412L496 416z" id="黄岩区"/><path class="leaflet-interactive" stroke="#333" stroke-opacity="1" stroke-width="1" stroke-linecap="round" stroke-linejoin="round" stroke-dasharray="1,6" fill="#eee" fill-opacity="0.5" fill-rule="evenodd" d="M568 417L555 418L549 416L546 411L541 412L545 424L549 424L551 426L554 425L559 427L558 428L560 426L566 426L571 429L570 430L572 432L576 429L572 419L569 418zM574 423L574 423zM574 421L574 421z" id="路桥区"/><path class="leaflet-interactive" stroke="#333" stroke-opacity="1" stroke-width="1" stroke-linecap="round" stroke-linejoin="round" stroke-dasharray="1,6" fill="#eee" fill-opacity="0.5" fill-rule="evenodd" d="M538 362L533 371L541 373L540 374L547 380L549 376L551 376L560 390L567 389L567 391L571 391L575 387L582 389L585 388L583 379L579 375L580 371L574 367L575 363L570 356L565 356L563 360L556 357L552 357L550 353L547 355L548 356L543 363L542 362L541 364L539 362zM577 364L577 362L577 364zM578 365L579 366L578 364zM576 367L576 368zM587 378L587 378zM588 378L588 378zM585 376L586 376zM583 364L583 364zM585 376L585 376zM577 362L577 361zM584 375L584 375zM577 361L577 361zM576 367L576 367zM577 368L577 367z" id="三门县"/><path class="leaflet-interactive" stroke="#333" stroke-opacity="1" stroke-width="1" stroke-linecap="round" stroke-linejoin="round" stroke-dasharray="1,6" fill="#eee" fill-opacity="0.5" fill-rule="evenodd" d="M538 362L536 353L530 352L531 351L529 349L531 347L531 343L533 342L529 340L529 338L526 339L525 342L523 342L524 341L522 340L518 342L516 340L510 344L507 342L505 346L506 349L502 347L499 350L494 350L495 351L489 358L489 360L492 361L490 361L487 365L487 371L488 372L488 370L490 372L490 376L494 375L498 379L500 379L505 373L507 373L510 370L519 371L522 367L534 371L538 363z" id="天台县"/><path class="leaflet-interactive" stroke="#333" stroke-opacity="1" stroke-width="1" stroke-linecap="round" stroke-linejoin="round" stroke-dasharray="1,6" fill="#eee" fill-opacity="0.5" fill-rule="evenodd" d="M489 376L485 376L483 384L479 385L476 388L472 388L471 385L467 392L466 390L464 390L461 393L461 395L457 398L455 403L456 404L453 406L453 408L456 411L455 412L458 415L458 417L453 418L453 420L450 422L451 425L452 424L455 426L459 426L460 429L462 427L461 424L463 422L464 417L468 417L469 420L477 423L480 422L480 420L482 420L483 417L485 418L489 414L496 417L498 414L507 412L504 409L506 409L508 403L507 401L509 399L507 397L508 394L506 387L504 387L504 385L494 375L489 376z" id="仙居县"/><path class="leaflet-interactive" stroke="#333" stroke-opacity="1" stroke-width="1" stroke-linecap="round" stroke-linejoin="round" stroke-dasharray="1,6" fill="#eee" fill-opacity="0.5" fill-rule="evenodd" d="M556 451L560 446L563 446L567 449L568 453L571 452L574 449L573 448L576 443L572 441L578 435L577 433L575 431L572 432L570 430L571 429L568 428L567 426L561 426L558 428L559 427L555 425L551 426L549 424L544 423L540 423L538 425L532 424L530 426L535 432L535 434L538 435L537 438L534 439L534 443L531 448L540 449L548 444L548 450L556 451zM573 441L574 441zM577 438L578 439L577 438zM576 449L576 448zM576 439L577 440L576 439zM578 450L578 450zM574 455L574 455zM572 454L574 454L572 454zM575 447L575 447zM566 452L566 452zM577 450L577 449zM573 452L573 451zM574 447L574 447zM566 452L566 452zM575 456L575 455zM565 449L565 449zM581 439L581 438zM577 437L577 437zM581 450L582 450zM570 452L570 452zM580 436L580 436zM575 447L575 446zM569 452L569 452z" id="温岭市"/><path class="leaflet-interactive" stroke="#333" stroke-opacity="1" stroke-width="1" stroke-linecap="round" stroke-linejoin="round" stroke-dasharray="1,6" fill="#eee" fill-opacity="0.5" fill-rule="evenodd" d="M533 371L523 367L517 372L515 370L510 370L499 379L500 382L503 383L503 386L506 387L508 394L507 397L509 399L507 401L509 403L511 403L512 405L519 409L533 402L536 403L536 405L538 406L542 404L541 405L544 407L547 404L546 401L549 400L550 397L557 402L561 402L565 408L574 407L577 405L579 395L577 388L575 387L571 391L565 389L560 390L556 382L550 376L548 380L542 377L540 373L534 372zM592 402L593 403L595 400L597 400L596 399L598 399L592 401zM583 406L586 407L588 405L585 406L586 405L584 404L585 405L583 406zM598 404L599 404zM591 398L594 395L594 393L591 398zM596 408L596 408zM590 398L590 399zM588 400L588 399zM592 391L593 390L592 391zM593 403L593 403zM593 405L594 405zM599 405L599 405zM591 409L590 410L591 409zM585 396L586 396zM593 406L593 406zM587 395L587 395zM581 404L581 404zM583 403L584 403z" id="临海市"/><path class="leaflet-interactive" stroke="#333" stroke-opacity="1" stroke-width="1" stroke-linecap="round" stroke-linejoin="round" stroke-dasharray="1,6" fill="#eee" fill-opacity="0.5" fill-rule="evenodd" d="M531 449L528 450L527 461L525 463L529 475L538 474L542 470L543 466L549 463L552 456L556 452L547 449L548 444L540 449L532 449zM550 465L551 464L550 465zM552 469L552 467L551 469zM559 467L559 467zM552 473L553 473zM552 472L552 472zM552 466L552 466zM560 470L562 468L563 469L563 467L560 470zM546 468L549 467L548 466L546 468zM559 464L559 464zM551 464L551 464zM528 476L530 475L528 476zM563 470L563 470zM553 456L553 456zM563 470L563 470zM553 456L553 455z" id="玉环市"/><path class="leaflet-interactive" stroke="#333" stroke-opacity="1" stroke-width="1" stroke-linecap="round" stroke-linejoin="round" stroke-dasharray="1,6" fill="#eee" fill-opacity="0.5" fill-rule="evenodd" d="M389 423L389 430L394 429L396 431L395 436L397 445L390 446L393 449L395 448L400 454L398 454L395 458L395 460L399 462L400 467L404 465L405 466L405 464L408 463L410 465L410 461L412 462L415 458L412 455L409 456L408 458L406 454L407 449L418 437L419 438L423 434L424 435L431 428L434 429L436 426L432 418L429 422L423 419L422 414L420 411L419 412L414 402L412 402L407 407L407 410L405 412L401 412L403 415L402 417L401 416L395 423L392 421L391 423L389 423z" id="莲都区"/><path class="leaflet-interactive" stroke="#333" stroke-opacity="1" stroke-width="1" stroke-linecap="round" stroke-linejoin="round" stroke-dasharray="1,6" fill="#eee" fill-opacity="0.5" fill-rule="evenodd" d="M454 435L447 434L442 429L436 432L434 429L431 428L424 435L423 434L419 438L418 437L407 449L406 454L408 458L411 455L413 456L416 459L421 470L421 474L418 477L413 477L412 480L414 482L421 480L420 484L426 484L430 482L430 480L431 481L433 479L439 479L442 484L446 484L447 481L454 481L456 479L454 478L455 473L458 472L457 468L461 466L459 462L462 461L461 460L463 458L461 456L464 453L462 451L462 447L458 445L458 443L456 443L457 442L454 438L454 435z" id="青田县"/><path class="leaflet-interactive" stroke="#333" stroke-opacity="1" stroke-width="1" stroke-linecap="round" stroke-linejoin="round" stroke-dasharray="1,6" fill="#eee" fill-opacity="0.5" fill-rule="evenodd" d="M454 435L454 433L458 435L459 426L455 426L452 423L452 425L450 425L450 421L454 417L458 417L453 406L456 403L455 402L457 401L461 392L463 391L461 389L457 391L451 385L452 382L449 381L448 379L446 383L448 383L448 387L440 397L437 396L436 399L434 399L431 396L427 399L424 396L417 395L412 401L415 402L418 412L422 414L423 419L428 422L432 418L433 419L434 423L436 423L436 426L434 428L436 431L442 429L447 434L454 435z" id="缙云县"/><path class="leaflet-interactive" stroke="#333" stroke-opacity="1" stroke-width="1" stroke-linecap="round" stroke-linejoin="round" stroke-dasharray="1,6" fill="#eee" fill-opacity="0.5" fill-rule="evenodd" d="M378 420L379 415L376 411L374 411L376 399L375 398L371 400L368 396L366 396L366 398L363 399L363 395L361 393L358 394L354 399L351 398L346 401L337 402L337 404L335 404L329 411L328 410L326 412L324 417L325 420L321 424L318 421L312 424L311 423L308 426L307 435L311 435L309 441L305 445L308 446L311 452L316 450L316 448L320 445L323 449L322 450L326 450L330 456L333 454L332 451L334 448L336 447L338 448L338 450L342 447L344 443L345 446L349 445L350 438L353 437L355 426L358 425L358 423L359 424L359 422L365 416L373 416L375 417L374 420L377 420z" id="遂昌县"/><path class="leaflet-interactive" stroke="#333" stroke-opacity="1" stroke-width="1" stroke-linecap="round" stroke-linejoin="round" stroke-dasharray="1,6" fill="#eee" fill-opacity="0.5" fill-rule="evenodd" d="M389 423L382 422L379 419L378 421L375 420L374 416L366 416L359 422L359 424L358 423L358 425L354 427L354 433L349 440L348 446L352 451L352 447L354 447L357 448L359 452L363 451L365 453L367 451L372 453L373 450L382 450L383 447L386 445L396 446L396 431L394 429L389 430L389 424z" id="松阳县"/><path class="leaflet-interactive" stroke="#333" stroke-opacity="1" stroke-width="1" stroke-linecap="round" stroke-linejoin="round" stroke-dasharray="1,6" fill="#eee" fill-opacity="0.5" fill-rule="evenodd" d="M390 446L383 446L383 450L374 450L373 453L370 452L368 454L370 458L367 465L369 466L370 471L372 473L368 476L368 480L366 478L365 479L367 482L366 483L370 488L370 486L380 486L381 484L378 479L385 477L388 473L395 469L399 463L399 461L395 460L395 458L397 457L397 454L400 454L395 448L394 449L391 447z" id="云和县"/><path class="leaflet-interactive" stroke="#333" stroke-opacity="1" stroke-width="1" stroke-linecap="round" stroke-linejoin="round" stroke-dasharray="1,6" fill="#eee" fill-opacity="0.5" fill-rule="evenodd" d="M378 513L377 514L376 512L376 508L370 511L366 511L361 507L359 505L362 502L362 500L360 498L354 498L354 493L352 495L347 495L347 497L350 498L345 508L345 506L341 507L339 504L338 506L336 505L336 500L334 500L334 498L330 496L326 497L323 494L323 492L318 496L318 500L324 507L321 508L321 510L325 517L324 522L320 526L323 529L322 531L328 534L332 530L331 529L335 529L338 532L345 532L344 535L346 537L356 537L360 532L364 531L367 525L371 525L372 528L376 525L378 514z" id="庆元县"/><path class="leaflet-interactive" stroke="#333" stroke-opacity="1" stroke-width="1" stroke-linecap="round" stroke-linejoin="round" stroke-dasharray="1,6" fill="#eee" fill-opacity="0.5" fill-rule="evenodd" d="M415 458L413 462L410 460L409 461L411 463L410 464L407 463L402 467L400 467L399 464L393 470L387 473L383 478L378 478L381 484L380 485L373 487L370 486L370 488L367 485L364 488L359 487L357 491L356 490L357 493L354 494L355 499L359 498L362 501L362 503L359 505L366 511L370 511L376 508L376 512L378 514L381 512L382 513L382 511L390 511L392 507L401 500L401 498L404 498L404 487L406 485L408 487L410 485L408 482L412 481L413 476L418 477L421 474L421 468L415 459z" id="景宁畲族自治县"/><path class="leaflet-interactive" stroke="#333" stroke-opacity="1" stroke-width="1" stroke-linecap="round" stroke-linejoin="round" stroke-dasharray="1,6" fill="#eee" fill-opacity="0.5" fill-rule="evenodd" d="M369 453L367 451L365 453L363 451L360 452L358 451L357 448L354 447L352 447L352 451L349 448L349 446L345 446L344 443L339 450L337 447L333 449L333 453L331 456L327 453L326 450L322 450L323 449L320 444L316 448L316 450L312 452L316 454L311 460L315 460L315 465L312 466L307 471L308 480L316 487L318 492L317 493L319 495L322 492L326 497L333 497L332 498L336 500L335 503L337 506L339 505L343 507L345 505L345 508L350 499L348 497L347 498L347 494L351 495L356 493L359 487L364 488L367 485L368 486L365 478L367 480L369 475L372 473L367 465L370 458L368 453z" id="龙泉市"/></g></svg>